<svg viewBox="480.014 487.143 86 24.152"><path fill="#d4002a" d="M549.539 493.461c-1.461-1.31-2.797-1.742-4.225-1.742s-3.215.489-3.215 2.307c0 1.523 1.365 2.04 3.541 2.725 3.116 1.007 7.141 2.307 7.141 6.884 0 5.29-4.252 7.66-8.797 7.66-3.279 0-6.592-1.2-8.603-3.312l3.403-3.492c1.356 1.459 3.381 2.227 5.199 2.227 1.688 0 3.182-.651 3.182-2.5 0-1.753-1.755-2.34-4.773-3.317-2.919-.94-5.873-2.398-5.873-6.55 0-5.098 4.608-7.207 8.892-7.207 2.599 0 5.521.975 7.532 2.822l-3.404 3.495zm-54.329 8.291h-5.776l2.919-7.89 2.857 7.89zm9.478 8.958l-9.4-22.985h-5.529l-9.744 22.985h6.141l1.686-4.512h8.899l1.785 4.512h6.162zm19.722-22.985h-6.134l-5.323 16.61-5.42-16.61h-6.232L510 510.71h5.551l8.859-22.985zm2.225 22.985h5.583v-22.985h-5.583v22.985z"/><g fill="#d4002a"><path d="M561.791 487.237a4.183 4.183 0 0 0-4.195 4.186c0 2.328 1.881 4.15 4.195 4.15 2.34 0 4.223-1.822 4.223-4.15 0-2.327-1.883-4.186-4.223-4.186zm0 7.732c-1.945 0-3.529-1.609-3.529-3.546a3.537 3.537 0 0 1 3.529-3.543 3.55 3.55 0 0 1 3.56 3.543c0 1.937-1.593 3.546-3.56 3.546z"/><path d="M562.484 491.7c.668-.147 1.092-.592 1.092-1.275 0-1.014-.872-1.384-1.776-1.384h-1.638v4.728h.851v-1.974h.621l1.093 1.974h1.031l-1.274-2.069zm-1.471-.592v-1.346h.769c.445 0 .945.127.945.644 0 .572-.553.702-1.051.702h-.663z"/></g></svg>