<svg xmlns="http://www.w3.org/2000/svg" width="105" height="102" viewBox="0 0 105 102">
  <g fill="none" fill-rule="evenodd">
    <polygon fill="#DB352C" points="17.858 74.899 8.176 100.872 88.975 100.872 93.685 74.899"/>
    <path fill="#0A0B09" fill-rule="nonzero" d="M16.6404567,73.6622603 L95.0508244,73.6622603 L90.2433508,101.815726 L6.12093285,101.815726 L16.6404567,73.6622603 Z M8.88422715,99.9272603 L88.6062092,99.9272603 L92.7687356,75.5507259 L17.9925033,75.5507259 L8.88422715,99.9272603 Z"/>
    <polygon fill="#FFFFFE" points="71.543 98.032 75.568 98.032 78.074 82.718 74.003 82.718"/>
    <polygon fill="#FFFFFE" points="62.217 98.032 66.287 98.032 67.307 91.975 70.431 91.975 70.998 88.471 67.85 88.471 68.206 86.385 71.346 86.385 71.934 82.718 64.723 82.718"/>
    <polygon fill="#FFFFFE" points="44.965 98.032 49.047 98.032 50.641 88.427 50.641 98.032 54.017 98.032 57.653 88.427 56.087 98.032 60.143 98.032 62.647 82.718 56.477 82.718 53.519 90.553 53.519 82.718 47.484 82.718"/>
    <path fill="#FFFFFE" d="M35.06712,82.7181017 L33.47412,92.5956879 C33.44622,92.7985155 33.42552,92.9943086 33.41202,93.1830672 C33.39822,93.3724121 33.39132,93.5614638 33.39132,93.7505155 C33.39132,95.0334293 33.75042,96.0631017 34.46952,96.8395328 C35.18772,97.6162569 36.21792,98.0043259 37.55862,98.0043259 C37.89042,98.0043259 38.25312,97.9870328 38.64702,97.953619 C39.04092,97.919619 39.43812,97.848981 39.83922,97.7408259 C40.70982,97.5113259 41.52552,97.018619 42.28572,96.262119 C43.04562,95.5059121 43.53642,94.2769293 43.75782,92.5754638 L45.35052,82.7181017 L41.26632,82.7181017 L39.69402,92.5956879 C39.62472,93.00105 39.48672,93.3219983 39.27942,93.5579466 C39.07212,93.7941879 38.85072,93.9463086 38.61582,94.0137224 C38.57442,94.0137224 38.53302,94.0172397 38.49162,94.0236879 C38.45022,94.0307224 38.40852,94.0339466 38.36712,94.0339466 C38.14602,94.0339466 37.94892,93.9427914 37.77642,93.760481 C37.60332,93.5781707 37.51722,93.318481 37.51722,92.9805328 C37.51722,92.913119 37.52022,92.8489293 37.52742,92.7882569 C37.53432,92.7272914 37.54482,92.6566534 37.55862,92.5754638 L39.18252,82.7181017 L35.06712,82.7181017 Z"/>
    <polygon fill="#FFFFFE" points="77.159 77.778 75.19 81.282 77.636 81.282 80.414 77.778"/>
    <path fill="#0E7D40" d="M3.16458,99.6517138 C1.24608,98.3708517 0.80028,96.563869 1.01958,94.7038345 C1.28178,92.4659897 6.97908,87.7250414 10.93578,80.9071621 C13.92378,75.7608517 13.37088,74.3313862 13.82118,69.9764552 C14.33808,64.9805069 11.98998,45.5166793 13.65048,36.4512828 C14.60628,31.2384379 15.94128,26.1381448 20.73468,19.8320241 C24.32628,15.1071966 28.55568,11.476231 35.28648,8.21428276 C35.28648,8.21428276 34.97268,9.24835172 34.73778,11.6060759 C34.73778,11.6060759 38.61498,7.49324828 45.87018,4.73162759 C45.87018,4.73162759 45.48438,5.71293793 45.13008,8.62814483 C45.13008,8.62814483 49.85418,4.1630069 58.23318,2.40526552 C58.23318,2.40526552 57.40248,3.60523103 56.73408,6.4330931 C56.73408,6.4330931 61.44768,2.88976552 69.198,1.57021379 C69.198,1.57021379 68.4651,2.71243793 67.6326,5.46204138 C67.6326,5.46204138 72.876,2.22090345 80.1588,1.37266207 C80.1588,1.37266207 79.1226,2.80916207 78.4683,5.2765069 C78.4683,5.2765069 84.0006,2.16286897 91.0686,1.46704138 C91.0686,1.46704138 90.3762,2.47062759 89.433,4.8090069 C89.433,4.8090069 96.3108,1.90874828 103.7292,2.31498966 C103.7292,2.31498966 101.5539,9.59392069 97.8726,14.2041448 C97.8726,14.2041448 99.0018,14.1607655 102.087,12.8368172 C102.087,12.8368172 99.7053,19.8918172 95.5473,25.8133862 C95.5473,25.8133862 97.0065,25.4760241 99.6594,24.3170931 C99.6594,24.3170931 97.0614,32.7054207 94.0272,36.6347655 C94.0272,36.6347655 95.7528,36.5321793 98.1585,35.3811621 C98.1585,35.3811621 95.5701,42.5270241 91.515,47.1138 C91.515,47.1138 93.2919,46.8063345 95.8101,46.1571103 C95.8101,46.1571103 91.8384,53.534231 88.4721,56.4699552 C88.4721,56.4699552 91.5585,56.1739207 92.5845,55.8617655 C92.5845,55.8617655 88.6434,62.5070069 82.2819,66.1133517 C82.2819,66.1133517 82.854,66.2751448 86.9961,66.1162828 C86.9961,66.1162828 81.5034,71.6576966 73.0569,72.3637828 C73.0569,72.3637828 73.6878,72.8002138 76.5531,73.8011621 C76.5531,73.8011621 69.5325,76.8295069 60.17058,75.4829897 C60.17058,75.4829897 60.86808,76.4241448 62.71488,77.7806276 C62.71488,77.7806276 55.35768,78.8926621 46.80978,76.5994207 C46.80978,76.5994207 47.63118,77.9893172 48.72648,79.2842483 C48.72648,79.2842483 44.45178,78.5283345 39.85308,78.6496793 C37.05798,78.7250069 32.26098,78.7865586 28.05588,80.3127483 C24.33018,81.6657138 21.82668,83.6136793 20.92848,84.9487655 C14.35968,94.7231793 10.36548,99.3679897 8.68128,100.272507 C6.90798,101.227145 5.26698,101.055386 3.16458,99.6517138"/>
    <path fill="#0A0B09" fill-rule="nonzero" d="M96.4267814,37.0824197 L96.4233497,37.0902936 C96.4244943,37.0876681 96.4256381,37.0850434 96.4267814,37.0824197 Z M93.8854233,47.5935433 L93.8845997,47.594937 C93.8848743,47.5944724 93.8851488,47.5940079 93.8854233,47.5935433 Z M84.2633761,67.1300149 L84.2486793,67.1405717 C84.2535817,67.1370532 84.2584807,67.1335342 84.2633761,67.1300149 Z M96.4233497,37.0902936 C96.0803701,37.1906586 95.7421795,37.2822623 95.4134696,37.3583765 C94.8084559,37.4984699 94.3550158,37.561249 94.0857784,37.5772551 L91.9925664,37.7016957 L93.2555667,36.066087 C94.1639727,34.8896846 95.1098734,33.1809595 96.0540004,31.0883102 C96.7483887,29.5492046 97.4009049,27.8955253 97.9912581,26.2412505 C97.6702955,26.137666 97.2813965,26.2747058 96.916924,26.3946629 C96.3662061,26.575918 95.9810112,26.6833956 95.7697311,26.7322428 L93.3346477,27.2952258 L94.7502407,25.2792251 C95.2926366,24.506778 95.8217101,23.68943 96.3367966,22.8327332 C97.689857,20.5823102 98.8882092,18.165227 99.9168721,15.7475513 C100.099966,15.317224 100.270863,14.902659 100.429349,14.5065641 C99.9266531,14.6831347 99.4759932,14.8225972 99.0748341,14.928503 C98.7519742,15.0137377 98.4794822,15.0721631 98.253946,15.108399 C98.0999988,15.1331329 97.9866134,15.1447227 97.9104513,15.1476485 L95.8294822,15.227591 L97.1104879,13.6233416 C97.9917651,12.5196865 98.8372643,11.1868752 99.6391215,9.67512182 C100.522965,8.00879943 101.307246,6.2173379 101.981168,4.42517274 C102.140596,4.00120526 102.285943,3.59789805 102.416861,3.21998999 C99.4958162,3.20283142 96.4838645,3.66405241 93.5477825,4.45292493 C92.5423898,4.72305588 91.62222,5.01226282 90.8079264,5.3008571 C90.5245793,5.4012783 90.2752874,5.49419086 90.0626146,5.57712484 C89.9794263,5.60956502 89.1856727,5.9425315 87.6813539,6.57602427 L88.5337311,4.46281268 C88.8074974,3.78409194 89.0747156,3.17903327 89.3317042,2.64491251 C87.2924733,2.97347392 85.2828967,3.50604482 83.342738,4.19135436 C82.1528417,4.61165367 81.0685064,5.06170482 80.1126468,5.51084043 C79.7799836,5.66715094 79.4878187,5.8117806 79.2389914,5.94088013 C79.0929918,6.01662937 78.9959158,6.06918584 78.9505902,6.09469554 L76.9550126,7.21782807 L77.5326204,5.03968717 C77.706942,4.38232598 77.9160318,3.75846603 78.1526839,3.17001269 C78.2337676,2.96839199 78.3167779,2.77402864 78.4011682,2.58706418 C76.3863704,2.9480586 74.4346879,3.50081769 72.5746109,4.19830028 C71.3585723,4.65428447 70.2617161,5.14238089 69.3037181,5.62930259 C68.9706333,5.79859959 68.6794467,5.95516333 68.4325976,6.09481282 C68.2881974,6.17650405 68.1929225,6.23295645 68.1492008,6.2599824 L65.9763892,7.60307701 L66.7057271,5.19420011 C66.9728606,4.3119043 67.2450768,3.53848429 67.5153158,2.86882905 C65.5866301,3.3100766 63.7667356,3.90724931 62.0663671,4.6247762 C60.7225891,5.1918279 59.5374105,5.79837771 58.5235074,6.40305364 C58.1715972,6.61292745 57.8671205,6.80684227 57.6116566,6.9795962 C57.462967,7.0801455 57.3663651,7.14916782 57.3234221,7.18144912 L55.1854363,8.788625 L55.7924125,6.22063411 C55.9014798,5.75919331 56.0188202,5.32197224 56.1433517,4.9085283 C56.2639771,4.50805287 56.3890193,4.13689591 56.516819,3.79438519 C54.4761702,4.35857263 52.5719882,5.10939234 50.8106819,6.00485459 C49.3705442,6.73703207 48.1146687,7.52031278 47.0518304,8.30125314 C46.6828652,8.57235729 46.3652886,8.82286162 46.1001926,9.0460358 C45.9458937,9.1759342 45.8461547,9.26509895 45.8020554,9.30678088 L43.8501404,11.1516973 L44.170372,8.51680764 C44.1971258,8.29667531 44.2245511,8.08328676 44.2526043,7.87653828 C44.3313423,7.2962485 44.413426,6.77845115 44.4973776,6.319576 C43.4899354,6.76467691 42.5219439,7.24853495 41.5939267,7.76580787 C39.8164763,8.75655137 38.275302,9.81685769 36.9779246,10.8746532 C36.5267978,11.242472 36.1392577,11.5826659 35.8162372,11.8861625 C35.7049285,11.9907434 35.6100772,12.0827624 35.5317983,12.1610832 C35.502103,12.1907943 34.8237513,12.9091991 33.4967429,14.3162977 L33.7758763,11.514597 C33.8218036,11.053618 33.8726958,10.6216543 33.9277628,10.218121 C28.6205761,12.7781276 24.8528557,15.9981407 21.5105707,20.394989 C17.4718647,25.7082463 15.8214228,29.9659975 14.6018163,36.6176185 C14.0010308,39.8975697 13.8891771,44.740417 14.1334878,51.4270498 C14.2035845,53.3455531 14.2951828,55.2697708 14.4371925,57.9403966 C14.9142552,66.9120111 14.9668102,68.2922429 14.7827358,70.0713614 C14.7047025,70.8260352 14.6842955,71.0981838 14.5850841,72.5666744 C14.5176638,73.5646038 14.4677142,74.1187317 14.3785313,74.7290659 C14.0816654,76.7607047 13.3764493,78.617241 11.7764925,81.3728883 C10.8694066,82.9359085 9.82976032,84.4705069 8.62868633,86.0573067 C7.88315286,87.0422687 7.11281322,88.0007813 6.16216386,89.1411603 C5.94419743,89.4026283 4.40768614,91.2271333 4.01965879,91.6989017 C2.65777892,93.3546916 2.03900968,94.305528 1.97968125,94.8118868 C1.76978401,96.59217 2.27745668,97.9157993 3.709849,98.8721178 C5.5199007,100.080603 6.77665232,100.21976 8.21572654,99.4450493 C9.89190425,98.5448406 14.1702733,93.2846515 20.1208706,84.4301274 C21.2927988,82.6881709 24.18464,80.7112184 27.7193362,79.4276148 C28.6826551,79.0779899 29.7061399,78.7901269 30.7882693,78.5570738 C33.5270383,77.967238 35.5457697,77.8194792 39.7481714,77.7078984 C42.0161473,77.6480259 44.2836912,77.7751438 46.4814367,78.0223318 C46.3447594,77.6671182 46.2205517,77.4737295 46.1120632,77.2995153 C46.0679471,77.2286723 45.6291957,76.4888091 44.7958088,75.0799257 L47.0656885,75.6888919 C51.7529423,76.9463942 56.3476775,77.2782384 60.3330995,77.0492162 C60.2379378,76.9593356 60.1466609,76.8706753 60.0592104,76.7833059 C59.7218295,76.4462379 59.5026843,76.1917924 59.3877875,76.0367591 L58.0433036,74.2226115 L60.3113391,74.5488254 C64.8893708,75.2072884 69.2361857,74.8670844 73.1097001,73.8997975 C73.3203716,73.847189 73.5252878,73.7936941 73.724298,73.7395444 C73.5809337,73.6785006 73.4473102,73.6197986 73.3231044,73.5634059 C72.887135,73.3654645 72.6301238,73.2255904 72.4983112,73.1344078 L70.3423653,71.6430118 L72.9743896,71.4229874 C76.2961964,71.1453006 79.3910663,70.0756433 82.1929283,68.4632892 C82.9329112,68.0374601 83.6193268,67.592269 84.2486793,67.1405717 C83.4799006,67.1353059 82.9073715,67.1208224 82.5136395,67.0911871 C82.2721575,67.0730113 82.1199644,67.0505837 82.0130626,67.0203513 L79.8401538,66.4058405 L81.7967441,65.2966462 C83.5592306,64.2974897 85.2414393,62.9910466 86.8269911,61.4503477 C88.1957486,60.1203103 89.4161959,58.6923781 90.4702235,57.264965 C90.1215002,57.2391521 89.697436,57.2894639 89.2735585,57.3359883 C89.0887994,57.3562673 88.9171656,57.3743746 88.7629479,57.3900814 C88.7009213,57.3963988 87.6529235,57.4971641 85.6189545,57.6923774 L87.8284074,55.7655306 C88.2249656,55.4196953 88.6496203,54.9894474 89.0970783,54.4825913 C89.8495555,53.630226 90.6503611,52.5802892 91.4791704,51.3782096 C92.3081469,50.1758873 93.1210684,48.8868161 93.8845997,47.594937 C93.5543901,47.6677359 93.2320596,47.7373448 92.9195263,47.8024124 C92.5814732,47.8727931 92.2788376,47.9328136 92.0156397,47.9826193 C91.7294377,48.0354876 91.70089,48.0405365 91.6834214,48.0435636 L89.0062869,48.506801 L90.7834936,46.4965796 C91.7419303,45.4124795 92.6723493,44.1138481 93.5656226,42.6467407 C94.5746737,40.9894805 95.4834793,39.208241 96.2753838,37.4264302 C96.3258581,37.3128616 96.3751838,37.2007853 96.4233497,37.0902936 Z M80.1390536,3.41756509 C80.1416198,3.41179036 80.1441872,3.40602415 80.1467559,3.40026648 L80.1390536,3.41756509 Z M46.4490094,6.3927065 L46.4593835,6.33984812 C46.4559246,6.35735269 46.4524665,6.37497205 46.4490094,6.3927065 Z M80.1467559,3.40026648 C80.924584,3.0746065 81.7761695,2.73660861 82.6855583,2.41539114 C85.3458526,1.47571281 88.134463,0.806874054 90.9715873,0.527566003 L93.0213835,0.325768498 L91.8698679,1.99481117 C91.6853717,2.2920068 91.5797324,2.47668281 91.4606343,2.69899682 C91.3819858,2.84580575 91.301643,3.00111963 91.2197658,3.16505992 C91.7898121,2.98283034 92.3964293,2.80369902 93.0352546,2.63205814 C96.5813454,1.67928721 100.240372,1.1782286 103.783164,1.3722366 L104.997747,1.43874874 L104.656794,2.5796355 C104.552558,2.91459514 104.497597,3.0848544 104.434112,3.27611642 C104.253548,3.82009785 104.04037,4.42522446 103.795495,5.07642076 C103.095484,6.93796626 102.280213,8.80021538 101.35527,10.5440229 C100.975421,11.2601589 100.584942,11.9407826 100.183711,12.581846 C100.640914,12.4118387 101.145133,12.2096488 101.698227,11.9723003 L103.684085,11.1201113 L103.004695,13.1325808 C102.847876,13.5785075 102.764822,13.8061378 102.66882,14.0619684 C102.395565,14.790151 102.07273,15.6004115 101.701703,16.47244 C100.641377,18.964532 99.4055433,21.4572165 98.0034188,23.7892432 C98.2935008,23.8687813 98.7653934,23.6732672 99.2647875,23.4551047 L101.197473,22.6108025 L100.584308,24.5905682 C100.488479,24.8925962 100.438277,25.0473753 100.380859,25.221409 C100.217297,25.7171692 100.02838,26.2689803 99.8164024,26.862979 C99.2103533,28.5612366 98.5400121,30.2600899 97.8226961,31.8500145 C97.2621234,33.0925192 96.698104,34.2122777 96.1316841,35.188062 C96.6450236,35.0141648 97.1807611,34.7975321 97.7333289,34.5331537 L99.8591559,33.5160429 L99.0694595,35.6961779 C98.9443916,36.0293661 98.8787489,36.1986623 98.803164,36.3888329 C98.5882102,36.9296538 98.336061,37.5312389 98.0483524,38.1785926 C97.2260471,40.0288059 96.281759,41.8795904 95.2268184,43.6122193 C94.7895741,44.3303471 94.3424472,45.0125011 93.8855515,45.6544638 C94.4246904,45.529822 94.9856116,45.393089 95.5633948,45.2441291 L97.6884696,44.6962577 L96.665319,46.5966795 C96.5324424,46.8398382 96.4634639,46.9643455 96.3850787,47.1043275 C96.1618288,47.5030119 95.9074623,47.9467392 95.6262632,48.4243621 C94.8224434,49.7896681 93.9633595,51.1553745 93.0822702,52.4332795 C92.367139,53.4704839 91.6680555,54.4046323 90.9921285,55.2134308 C91.5921432,55.1231221 92.0501979,55.0353319 92.297034,54.9602333 L94.6629204,54.2404246 L93.4205936,56.3351601 C93.3556165,56.4447204 93.2341491,56.6399616 93.0580097,56.9087279 C92.7682772,57.3508229 92.4276098,57.8419132 92.0377651,58.3698592 C90.9256657,59.8759158 89.6388893,61.3814535 88.1900355,62.7893213 C87.2788615,63.6747196 86.3348524,64.4901351 85.3591113,65.2236972 C85.832669,65.2122935 86.364402,65.1955457 86.9580708,65.1727767 L89.3681744,65.0803419 L87.6902368,66.7731609 C87.4704087,66.9949386 87.0647945,67.3643984 86.484711,67.8321871 C85.5284944,68.6032954 84.4212697,69.3726656 83.1738914,70.0904795 C81.0917215,71.2886809 78.8545262,72.2122655 76.4824238,72.7723092 C76.6103949,72.8179605 76.742353,72.864541 76.8783643,72.9120544 L79.159586,73.7089639 L76.943318,74.664954 C76.7750853,74.7375214 76.4692185,74.8570386 76.0355559,75.0075967 C75.3243759,75.2545025 74.5053711,75.5004479 73.5883501,75.7294447 C70.2935217,76.5522231 66.6814552,76.9466206 62.8764652,76.7100678 C63.0107048,76.8139011 63.150395,76.9192112 63.295633,77.0258892 L65.1275272,78.3714235 L62.8626375,78.7137597 C62.7969374,78.7236902 62.6782248,78.7398062 62.5093516,78.7599912 C62.2338189,78.7929249 61.9138759,78.8256841 61.5523703,78.8561475 C57.7992797,79.1724134 53.4801282,79.0171476 48.9921351,78.0885166 C49.0859249,78.2100425 49.1807846,78.3299098 49.2765129,78.4476224 C49.3198608,78.5009253 49.9460686,79.2428153 51.1551362,80.6732924 L48.5543539,80.2133848 C48.2706451,80.1663261 48.117457,80.1423971 47.9433862,80.1165463 C47.4434247,80.0422983 46.8782917,79.9679053 46.2603814,79.8984068 C44.1466893,79.6606725 41.9669646,79.5384778 39.8797284,79.5935531 C35.7202366,79.7040096 33.7837837,79.8457461 31.2043547,80.4012656 C30.2061007,80.6162549 29.2679901,80.8801057 28.3925918,81.1978208 C25.2136437,82.3522366 22.6551596,84.1012959 21.7363521,85.4670131 C15.5780043,94.6306715 11.2232093,99.9848251 9.1476844,101.099507 C7.02398625,102.242778 4.99620298,102.018247 2.61930256,100.431304 C0.54707435,99.0478074 -0.227360402,97.0286628 0.0594006322,94.5964468 C0.178179716,93.5826819 0.888993178,92.4904051 2.51295787,90.5159692 C2.90936739,90.0340097 4.45176388,88.2025164 4.66345324,87.9485783 C5.59663711,86.8291505 6.34947723,85.8924121 7.0745804,84.9344415 C8.23201096,83.4053013 9.22943737,81.9330227 10.0951621,80.4412729 C11.5830795,77.8785939 12.2050939,76.2410925 12.4650326,74.4621703 C12.5454114,73.9120877 12.591998,73.3952684 12.6563811,72.4422931 C12.7572442,70.9493564 12.7784377,70.6667178 12.8596302,69.881491 C13.0280195,68.2539728 12.9723144,66.7910115 12.5068957,58.0383746 C12.3643891,55.3584033 12.2723647,53.4252351 12.2018182,51.4944199 C11.9528117,44.6792664 12.0669799,39.736206 12.6991737,36.2847836 C13.967416,29.3679072 15.7208785,24.8443872 19.9588024,19.2690421 C23.8376128,14.166383 28.2913975,10.5502957 34.8570202,7.36839737 L36.8433251,6.40577421 L36.2130627,8.48268552 C36.1954691,8.54066189 36.1579991,8.68572396 36.1069562,8.92254075 C37.3689021,8.12911587 38.8971653,7.09478842 40.6361013,6.12551272 C42.1626347,5.27462931 43.790979,4.5096925 45.5193404,3.85180869 L47.5561809,3.07650534 L46.7723646,5.07019923 C46.7474968,5.13345228 46.6879417,5.32599655 46.6048434,5.67104925 C46.5564452,5.87201486 46.5078308,6.0946718 46.4593835,6.33984812 C47.4659645,5.68634689 48.6238993,4.98778174 49.9184331,4.32963041 C52.3692592,3.08361082 55.0780244,2.10139874 58.0302925,1.48207379 L60.3803044,0.989089765 L59.0337172,2.9342663 C58.9886816,2.99932122 58.8860857,3.17501147 58.7438053,3.46948625 C58.6257974,3.71372498 58.5069978,3.98772853 58.389279,4.29235292 C59.2653117,3.81246499 60.23713,3.33960085 61.2999553,2.89110643 C63.6685903,1.89158233 66.2538323,1.11300524 69.0319607,0.640000132 L71.1688462,0.276173272 L70.0167307,2.07174444 C69.8319407,2.40339003 69.7265992,2.61426648 69.6099922,2.86967517 C69.520027,3.06672921 69.4290031,3.2776703 69.3372833,3.50276878 C70.1187497,3.13737907 70.9691915,2.77751684 71.8820253,2.43522692 C74.4545712,1.47058624 77.1950368,0.766924533 80.0442772,0.435068158 L82.1983167,0.184183137 L80.9486583,1.91660389 C80.8140442,2.12111527 80.7389673,2.244258 80.6571002,2.38777667 C80.485875,2.68794615 80.3136867,3.02609491 80.1467559,3.40026648 Z"/>
    <path fill="#2074AD" d="M27.39693,22.2324534 C24.51423,29.9736086 23.96193,31.3016603 22.38393,42.1848845 C21.29223,49.7208672 21.27033,57.8298672 19.78503,66.127919 C24.97563,64.8875052 32.67573,63.4020569 42.60333,63.8959362 C53.24613,64.4241086 70.0125,63.9117638 79.9005,61.6551603 C82.9167,52.4915741 83.1078,48.5842121 84.2067,41.6408845 C86.1459,29.3923845 85.7727,30.3511259 89.8719,16.179281 C82.2189,17.3865741 77.7819,18.2175224 70.1361,18.4918672 C62.90163,18.7515569 56.89713,19.3574017 51.32733,19.2682983 C43.73433,19.1492983 35.00883,19.8741431 27.39693,22.2324534"/>
    <path fill="#FFFFFE" fill-rule="nonzero" d="M27.0483348,22.1085412 L27.1107598,21.9409062 C34.2765516,19.7208086 42.6893349,18.7704517 51.3334031,18.9059244 C54.3659485,18.9544379 56.1118538,18.8784767 63.2768146,18.4656392 C66.1428719,18.3004999 68.0532507,18.2039673 70.1225157,18.129689 C73.6960885,18.0014629 76.6918802,17.7499045 79.9422601,17.3274922 C81.3172741,17.1487984 82.7397436,16.9405816 84.5707667,16.6543462 C85.4990027,16.5092394 89.0631425,15.9397543 89.8128,15.8214926 L90.3871039,15.7308937 L90.2288995,16.2778416 C87.7836743,24.7315279 87.0766294,27.3450322 86.4617355,30.3244056 C86.3092755,31.0631271 86.1658684,31.8186104 86.0178576,32.6592363 C85.8406194,33.6658593 85.6609731,34.7655971 85.3968759,36.4444932 C85.3866143,36.5097274 84.7919411,40.315419 84.5733233,41.6962672 C84.4534362,42.4537655 84.3391793,43.2066698 84.2065817,44.1056352 C84.1466739,44.5117886 83.9295725,45.9994163 83.8795469,46.3387819 C83.7536563,47.1928029 83.6518441,47.8618373 83.5480764,48.5093705 C82.8415178,52.9184545 81.9665562,56.5621517 80.253669,61.7661135 L80.1893846,61.9614174 L79.9849074,62.0080825 C71.0206194,64.0538797 54.9569535,64.8719017 42.5844662,64.2578897 C34.2928232,63.8453962 27.3679486,64.6889117 19.8731648,66.4799634 L19.3218545,66.6117118 L19.4196254,66.0654864 C20.1262323,62.1178257 20.4349171,59.1599912 21.0125999,51.9817456 C21.4012526,47.1523756 21.6274338,44.8207814 22.016647,42.134051 C22.5248277,38.6292064 22.9035855,36.2781171 23.274644,34.3607402 C23.640635,32.4695488 24.0116001,30.9407284 24.4780337,29.3884605 C25.0051203,27.6343427 25.3771373,26.5963475 27.0483348,22.1085412 Z M25.189891,29.5926416 C24.7305888,31.1211763 24.3652304,32.6268902 24.003628,34.4954044 C23.6351309,36.3995457 23.2579266,38.7409919 22.7512195,42.2356737 C22.3648578,44.9027205 22.1396835,47.2239343 21.7522172,52.0385625 C21.1994,58.9078297 20.8916354,61.9293359 20.2464272,65.6460108 C27.596641,63.9287709 34.4532325,63.1275923 42.6221481,63.5339804 C54.8373825,64.1401884 70.6866854,63.3424468 79.6116834,61.3484078 C81.2701924,56.2851842 82.1232924,52.7143204 82.8151058,48.3972498 C82.9183316,47.7530974 83.019729,47.0867888 83.1452234,46.2354555 C83.1951482,45.8967742 83.4122557,44.4091049 83.4722674,44.0022462 C83.6052001,43.1010094 83.7198132,42.345758 83.8401397,41.5854832 C84.0586255,40.2054692 84.6532219,36.4002691 84.6635855,36.3343861 C84.9283,34.6515655 85.1085428,33.5481765 85.2866972,32.5363502 C85.4358589,31.6891874 85.5805459,30.9269616 85.7344729,30.1811321 C86.340954,27.2425216 87.0332469,24.6683089 89.3566747,16.6281985 C88.0801901,16.8312003 85.4646812,17.2486694 84.6879825,17.3700871 C82.8510434,17.6572473 81.4225328,17.8663483 80.0400828,18.0460085 C76.7665813,18.4714256 73.7472503,18.7249606 70.1497497,18.8540453 C68.0871719,18.9280836 66.1815176,19.0243774 63.3204921,19.1892267 C56.1334342,19.6033375 54.3803628,19.6796105 51.3213803,19.6306741 C42.8234335,19.4974914 34.5557577,20.4222974 27.6829629,22.5243885 C26.0713174,26.8532842 25.7040888,27.8814169 25.189891,29.5926416 Z"/>
    <path fill="#FFFFFE" d="M38.35602,63.8722241 L44.99232,64.0545345 C47.11992,52.677431 46.70262,49.0687414 48.02922,39.6047241 C49.11792,31.8462759 50.04642,27.4928103 53.44032,19.2964655 L46.57182,19.2964655 C43.17792,27.3105 42.43452,31.3022759 41.35752,39.6047241 C40.12632,49.0831034 40.45542,52.4907241 38.35602,63.8722241"/>
    <path stroke="#FFFFFE" stroke-width="1.239" d="M38.35602,63.8722241 L44.99232,64.0545345 C47.11992,52.677431 46.70262,49.0687414 48.02922,39.6047241 C49.11792,31.8462759 50.04642,27.4928103 53.44032,19.2964655 L46.57182,19.2964655 C43.17792,27.3105 42.43452,31.3022759 41.35752,39.6047241 C40.12632,49.0831034 40.45542,52.4907241 38.35602,63.8722241 Z"/>
    <path fill="#FFFFFE" d="M83.9982,42.4394155 C75.111,43.9324845 72.8601,44.0916397 64.5048,44.480881 C49.8846,45.1611741 44.3619,44.49495 40.7889,44.6743293 C32.3217,45.0993293 27.3486,46.0856224 21.7818,47.4447431 C21.9669,45.5413293 22.1991,42.95645 22.5708,40.7786914 C28.1376,39.4195707 31.3596,38.9040017 39.8574,38.4403121 C43.4292,38.2465707 48.9519,38.9271569 63.5718,38.2465707 C71.9271,37.8576224 75.0141,37.6076052 85.1412,35.7575362 C85.2045,35.7461052 84.063,42.4276914 83.9982,42.4394155"/>
    <path stroke="#FFFFFE" stroke-width="1.239" d="M83.9982,42.4394155 C75.111,43.9324845 72.8601,44.0916397 64.5048,44.480881 C49.8846,45.1611741 44.3619,44.49495 40.7889,44.6743293 C32.3217,45.0993293 27.3486,46.0856224 21.7818,47.4447431 C21.9669,45.5413293 22.1991,42.95645 22.5708,40.7786914 C28.1376,39.4195707 31.3596,38.9040017 39.8574,38.4403121 C43.4292,38.2465707 48.9519,38.9271569 63.5718,38.2465707 C71.9271,37.8576224 75.0141,37.6076052 85.1412,35.7575362 C85.2045,35.7461052 84.063,42.4276914 83.9982,42.4394155 Z"/>
  </g>
</svg>
