<svg xmlns="http://www.w3.org/2000/svg" viewBox="0 0 154.7 172"><path fill="#E3000B" d="M75.3 91.6c-2.8 0-5.6-.1-8.2-.2l-8.3 27.3h35.8l-9.4-27.3c-3.1.1-6.4.2-9.9.2z"/><path d="M36.5 86.9h-.7L0 118.7h40.9l17.6-27.9c-8.9-.8-16.2-2.3-22-3.9zm79.6-1.2l-1.9 1.2c-5.2 1.5-11.7 2.8-19.5 3.7l19.9 28.1h40.2l-38.7-33z" fill="#005BA9"/><g fill="#E3000B"><path d="M56.2 61.9s-22-12.7-20.9-21.4c1.1-8.7 18.7-14.3 34.8-19.8 14.7-5 9.4-15.6 9.4-15.6S97.8 24 75.4 32.5c-20.1 7.6-29.1 13.8-19.2 29.4z"/><path d="M61 57.8s-2.1-12.5 19-20.7C110 25.4 116.5 18.2 99.7 0c15.7 7.4 37.1 27 17 38-9 5.1-51.8 9.1-55.7 19.8z"/><path d="M78.2 86.3S59.4 77.4 60.7 66c1.3-11.4 28.4-11.2 59.7-21.7s22-26 17.2-33.3c9.8 5.8 28.8 29.2.7 42.6-15.3 7.3-36.9 7.8-51.3 13.9-19.7 8.3-8.8 18.8-8.8 18.8z"/></g><path fill="#0078C1" d="M59.9 143.6c0-8.2-6.6-14.8-14.8-14.8-8.2 0-14.8 6.6-14.8 14.8 0 8.2 6.6 14.8 14.8 14.8.4 0 .9 0 1.3-.1v-1.2c0-.4 0-.9.1-1.3-.4 0-.9.1-1.3.1-6.8 0-12.4-5.5-12.4-12.4 0-6.8 5.5-12.4 12.4-12.4 6.8 0 12.4 5.5 12.4 12.4 0 5.5-3.6 10.1-8.5 11.8-.1.6-.1 1.2-.1 1.8v.8c6.2-1.6 10.9-7.4 10.9-14.3z"/><path fill="#E62142" d="M124.3 143.6c0 8.2-6.6 14.8-14.8 14.8-7.8 0-14.1-6-14.8-13.5.9.1 1.7.3 2.6.5.9 6 6 10.5 12.2 10.5 6.8 0 12.4-5.5 12.4-12.4 0-6.8-5.5-12.4-12.4-12.4-6.6 0-12 5.1-12.3 11.6-.8-.2-1.6-.3-2.5-.4.6-7.6 7-13.7 14.8-13.7 8.1.1 14.8 6.8 14.8 15zm-29.7 0"/><path fill="#00963E" d="M93.3 144.8c6.2 0 11.3 4.6 12.2 10.5.8.3 1.7.5 2.6.5-.7-7.6-7-13.5-14.8-13.5-.4 0-.9 0-1.3.1v1.2c0 .4 0 .9-.1 1.3.6-.1 1-.1 1.4-.1zm12.4 13.1c-.4 6.5-5.8 11.6-12.3 11.6-6.8 0-12.4-5.5-12.4-12.4 0-5.5 3.6-10.1 8.5-11.8.1-.6.1-1.2.1-1.8v-.8c-6.4 1.7-11.1 7.5-11.1 14.4 0 8.2 6.6 14.8 14.8 14.8 7.8 0 14.2-6 14.8-13.7-.8.1-1.6 0-2.4-.3z"/><path fill="#FAB319" d="M59.9 144.9c0-.4.1-.9.1-1.3v-1.2c.4 0 .9-.1 1.3-.1 7.8 0 14.1 6 14.8 13.5-.9-.1-1.7-.3-2.6-.5-.9-6-6-10.5-12.2-10.5-.6 0-1 0-1.4.1zM76 158.4c-.6 7.6-7 13.6-14.8 13.6-8.2 0-14.8-6.6-14.8-14.8 0-6.9 4.7-12.7 11.1-14.4v.8c0 .6 0 1.2-.1 1.8-4.9 1.6-8.5 6.3-8.5 11.8 0 6.8 5.5 12.4 12.4 12.4 6.6 0 12-5.1 12.3-11.6.7.2 1.5.3 2.4.4z"/><path d="M77.3 128.7c-7.8 0-14.2 6-14.8 13.7.8.1 1.7.2 2.5.4.4-6.5 5.8-11.6 12.3-11.6 6.8 0 12.4 5.5 12.4 12.4 0 5.5-3.6 10.1-8.5 11.8-.1.6-.1 1.2-.1 1.8v.8c6.4-1.7 11.1-7.5 11.1-14.4-.1-8.2-6.7-14.9-14.9-14.9zm0 27.2c-6.2 0-11.3-4.6-12.2-10.5-.8-.3-1.7-.5-2.6-.5.7 7.6 7 13.5 14.8 13.5.4 0 .9 0 1.3-.1v-1.2c0-.4 0-.9.1-1.3-.6.1-1 .1-1.4.1z"/></svg>