<svg xmlns="http://www.w3.org/2000/svg" width="105" height="102"><g fill="none" fill-rule="evenodd"><path fill="#DB352C" d="M17.858 74.899l-9.682 25.973h80.799l4.71-25.973z"/><path fill="#0A0B09" fill-rule="nonzero" d="M16.64 73.662h78.41l-4.807 28.154H6.121l10.52-28.154zM8.884 99.927h79.722l4.163-24.376H17.993L8.884 99.927z"/><path fill="#FFFFFE" d="M71.543 98.032h4.025l2.506-15.314h-4.071zm-9.326 0h4.07l1.02-6.057h3.124l.567-3.504H67.85l.356-2.086h3.14l.588-3.667h-7.211zm-17.252 0h4.082l1.594-9.605v9.605h3.376l3.636-9.605-1.566 9.605h4.056l2.504-15.314h-6.17l-2.958 7.835v-7.835h-6.035zm-9.898-15.314l-1.593 9.878a9.055 9.055 0 0 0-.062.587c-.014.19-.02.378-.02.568 0 1.282.358 2.312 1.078 3.089.718.776 1.748 1.164 3.089 1.164.331 0 .694-.017 1.088-.05a6.827 6.827 0 0 0 1.192-.213c.87-.23 1.687-.722 2.447-1.479.76-.756 1.25-1.985 1.472-3.687l1.593-9.857h-4.085l-1.572 9.878c-.07.405-.207.726-.415.962-.207.236-.428.388-.663.456a.806.806 0 0 0-.124.01.794.794 0 0 1-.715-.263c-.174-.183-.26-.443-.26-.78 0-.068.003-.132.01-.193a3.94 3.94 0 0 1 .032-.213l1.624-9.857h-4.116zm42.092-4.94l-1.969 3.504h2.446l2.778-3.504z"/><path fill="#0E7D40" d="M3.165 99.652C1.246 98.37.8 96.564 1.02 94.704c.262-2.238 5.96-6.979 9.916-13.797 2.988-5.146 2.435-6.576 2.885-10.93.517-4.996-1.831-24.46-.17-33.526.955-5.213 2.29-10.313 7.084-16.619 3.591-4.725 7.82-8.356 14.551-11.618 0 0-.313 1.034-.548 3.392 0 0 3.877-4.113 11.132-6.874 0 0-.386.98-.74 3.896 0 0 4.724-4.465 13.103-6.223 0 0-.83 1.2-1.499 4.028 0 0 4.714-3.543 12.464-4.863 0 0-.733 1.142-1.565 3.892 0 0 5.243-3.241 12.526-4.09 0 0-1.036 1.437-1.69 3.905 0 0 5.532-3.114 12.6-3.81 0 0-.693 1.004-1.636 3.342 0 0 6.878-2.9 14.296-2.494 0 0-2.175 7.279-5.856 11.89 0 0 1.129-.044 4.214-1.368 0 0-2.382 7.055-6.54 12.976 0 0 1.46-.337 4.112-1.496 0 0-2.598 8.388-5.632 12.318 0 0 1.726-.103 4.132-1.254 0 0-2.589 7.146-6.644 11.733 0 0 1.777-.308 4.295-.957 0 0-3.972 7.377-7.338 10.313 0 0 3.087-.296 4.113-.608 0 0-3.942 6.645-10.303 10.251 0 0 .572.162 4.714.003 0 0-5.493 5.542-13.94 6.248 0 0 .632.436 3.497 1.437 0 0-7.02 3.029-16.382 1.682 0 0 .697.941 2.544 2.298 0 0-7.357 1.112-15.905-1.182 0 0 .821 1.39 1.916 2.685 0 0-4.274-.756-8.873-.634-2.795.075-7.592.137-11.797 1.663-3.726 1.353-6.23 3.3-7.128 4.636-6.568 9.774-10.563 14.419-12.247 15.324-1.773.954-3.414.782-5.516-.621"/><path fill="#0A0B09" fill-rule="nonzero" d="M96.427 37.082l-.004.008.004-.008zm-2.542 10.512zM84.263 67.13l-.014.01.014-.01zm12.16-30.04a18.4 18.4 0 0 1-1.01.268 8.572 8.572 0 0 1-1.327.22l-2.093.124 1.263-1.636c.908-1.176 1.854-2.885 2.798-4.978a65.197 65.197 0 0 0 1.937-4.847c-.32-.103-.71.034-1.074.154-.55.18-.936.288-1.147.337l-2.435.563 1.415-2.016a41.226 41.226 0 0 0 1.587-2.446c1.353-2.25 2.551-4.668 3.58-7.085.183-.43.354-.845.512-1.241-.502.176-.953.316-1.354.422a8.637 8.637 0 0 1-.821.18 3.014 3.014 0 0 1-.344.039l-2.08.08 1.28-1.605c.882-1.103 1.727-2.436 2.53-3.948a45.38 45.38 0 0 0 2.341-5.25c.16-.424.305-.827.436-1.205-2.921-.017-5.933.444-8.87 1.233a36.92 36.92 0 0 0-2.74.848c-.282.1-.532.193-.744.276-.084.033-.877.366-2.382.999l.853-2.113c.273-.679.54-1.284.798-1.818a34.52 34.52 0 0 0-5.99 1.546c-1.19.42-2.273.87-3.23 1.32a24.953 24.953 0 0 0-1.161.584l-1.996 1.123.578-2.178a16.007 16.007 0 0 1 .868-2.453 33.39 33.39 0 0 0-5.826 1.611 32.198 32.198 0 0 0-3.271 1.431 22.332 22.332 0 0 0-1.155.631l-2.173 1.343.73-2.409c.267-.882.54-1.656.81-2.325a32.86 32.86 0 0 0-5.45 1.756 28.797 28.797 0 0 0-3.542 1.778c-.352.21-.657.404-.912.577-.149.1-.246.17-.289.201L55.185 8.79l.607-2.568c.11-.462.227-.899.351-1.312.121-.4.246-.772.374-1.115a30.526 30.526 0 0 0-5.706 2.21 27.114 27.114 0 0 0-3.76 2.297c-.368.271-.686.522-.95.745-.155.13-.255.22-.299.26l-1.952 1.846.32-2.635c.027-.22.055-.434.083-.64.078-.58.16-1.099.244-1.557a35.083 35.083 0 0 0-2.903 1.446 31.87 31.87 0 0 0-4.616 3.109c-.451.367-.839.708-1.162 1.011-.111.105-.206.197-.284.275-.03.03-.708.748-2.035 2.155l.279-2.801a36 36 0 0 1 .152-1.297c-5.307 2.56-9.075 5.78-12.417 10.177-4.04 5.313-5.69 9.571-6.91 16.223-.6 3.28-.712 8.122-.468 14.809.07 1.919.162 3.843.304 6.513.477 8.972.53 10.352.346 12.131-.078.755-.099 1.027-.198 2.496-.067.998-.117 1.552-.206 2.162-.297 2.032-1.003 3.888-2.603 6.644-.907 1.563-1.946 3.098-3.147 4.684a82.193 82.193 0 0 1-2.467 3.084c-.218.262-1.754 2.086-2.142 2.558-1.362 1.656-1.981 2.607-2.04 3.113-.21 1.78.297 3.104 1.73 4.06 1.81 1.209 3.067 1.348 4.506.573 1.676-.9 5.954-6.16 11.905-15.015 1.172-1.742 4.064-3.719 7.598-5.002.964-.35 1.987-.638 3.07-.87 2.738-.59 4.757-.739 8.96-.85 2.267-.06 4.535.067 6.732.314-.136-.355-.26-.548-.369-.722-.044-.071-.483-.811-1.316-2.22l2.27.609a42.304 42.304 0 0 0 13.267 1.36c-.095-.09-.186-.178-.274-.266a7.353 7.353 0 0 1-.671-.746l-1.345-1.814 2.268.326a33.257 33.257 0 0 0 13.413-.81c-.143-.06-.277-.12-.4-.176-.437-.198-.694-.337-.826-.429l-2.156-1.491 2.632-.22c3.322-.278 6.417-1.347 9.219-2.96a24.48 24.48 0 0 0 2.056-1.322 27.926 27.926 0 0 1-1.735-.05 2.668 2.668 0 0 1-.5-.07l-2.174-.615 1.957-1.11c1.762-.999 3.444-2.305 5.03-3.846a34.107 34.107 0 0 0 3.643-4.185c-.348-.026-.773.024-1.196.071l-.511.054-3.144.302 2.21-1.926c.396-.346.82-.777 1.268-1.283.753-.853 1.553-1.903 2.382-3.105a64.887 64.887 0 0 0 2.406-3.783c-.33.073-.653.142-.965.207a50.89 50.89 0 0 1-1.237.242l-2.677.463 1.777-2.01c.959-1.085 1.89-2.383 2.783-3.85a46.152 46.152 0 0 0 2.857-5.557zM80.14 3.418l.008-.018-.008.018zM46.45 6.393l.01-.053-.01.053zM80.147 3.4c.778-.325 1.63-.663 2.539-.985 2.66-.94 5.448-1.608 8.286-1.887l2.05-.202-1.152 1.669c-.185.297-.29.482-.41.704a18.35 18.35 0 0 0-.24.466c.57-.182 1.176-.361 1.815-.533 3.546-.953 7.205-1.454 10.748-1.26l1.215.067-.341 1.14a47.046 47.046 0 0 1-.862 2.497 47.207 47.207 0 0 1-2.44 5.468c-.38.716-.77 1.397-1.171 2.038.457-.17.961-.372 1.514-.61l1.986-.852-.68 2.013c-.156.446-.24.673-.335.929a60.342 60.342 0 0 1-.967 2.41c-1.06 2.493-2.296 4.985-3.699 7.317.29.08.762-.116 1.262-.334l1.932-.844-.613 1.98a72.415 72.415 0 0 1-.768 2.272 67.012 67.012 0 0 1-1.993 4.987 37.058 37.058 0 0 1-1.691 3.338 14.36 14.36 0 0 0 1.601-.655l2.126-1.017-.79 2.18c-.125.333-.19.503-.266.693a48.94 48.94 0 0 1-.755 1.79 47.988 47.988 0 0 1-2.821 5.433c-.437.718-.885 1.4-1.341 2.042.539-.124 1.1-.26 1.677-.41l2.125-.548-1.023 1.9a70.74 70.74 0 0 1-1.04 1.828 67.07 67.07 0 0 1-2.543 4.01 38.018 38.018 0 0 1-2.09 2.78c.6-.09 1.058-.179 1.305-.254l2.366-.72-1.242 2.095c-.065.11-.187.305-.363.574a35.988 35.988 0 0 1-4.868 5.88 29.626 29.626 0 0 1-2.83 2.435c.473-.012 1.004-.028 1.598-.051l2.41-.093-1.678 1.693c-.22.222-.625.591-1.205 1.06a25.727 25.727 0 0 1-3.311 2.257c-2.082 1.199-4.32 2.122-6.692 2.682.128.046.26.093.396.14l2.282.797-2.217.956c-.168.073-.474.192-.907.343-.712.247-1.53.492-2.448.721a35.195 35.195 0 0 1-10.712.981c.135.104.274.21.42.316l1.832 1.345-2.265.343a27.776 27.776 0 0 1-1.31.142 44.192 44.192 0 0 1-12.56-.767c.093.121.188.24.284.359.043.053.67.795 1.878 2.225l-2.6-.46a33.1 33.1 0 0 0-.612-.096 48.19 48.19 0 0 0-1.683-.219c-2.113-.237-4.293-.36-6.38-.304-4.16.11-6.096.252-8.676.807-.998.215-1.936.48-2.811.797-3.18 1.154-5.738 2.903-6.657 4.269-6.158 9.164-10.513 14.518-12.588 15.633-2.124 1.143-4.152.918-6.529-.669C.547 99.048-.227 97.03.06 94.596c.12-1.013.83-2.106 2.454-4.08.396-.482 1.939-2.313 2.15-2.567a80.39 80.39 0 0 0 2.412-3.015c1.157-1.529 2.154-3.001 3.02-4.493 1.488-2.562 2.11-4.2 2.37-5.979.08-.55.127-1.067.191-2.02.101-1.493.122-1.775.204-2.56.168-1.628.112-3.091-.353-11.844-.143-2.68-.235-4.613-.305-6.544-.25-6.815-.135-11.758.497-15.21 1.268-6.916 3.022-11.44 7.26-17.015 3.879-5.103 8.332-8.719 14.898-11.9l1.986-.963-.63 2.077a6.588 6.588 0 0 0-.106.44c1.262-.794 2.79-1.828 4.53-2.797a37.219 37.219 0 0 1 4.882-2.274l2.037-.775-.784 1.993a5.836 5.836 0 0 0-.167.601c-.049.201-.097.424-.146.669a37.872 37.872 0 0 1 3.46-2.01 32.653 32.653 0 0 1 8.111-2.848L60.38.99l-1.346 1.945a4.699 4.699 0 0 0-.29.535 11.44 11.44 0 0 0-.355.823 31.63 31.63 0 0 1 2.911-1.4c2.369-1 4.954-1.779 7.732-2.252l2.137-.364-1.152 1.796c-.185.331-.29.542-.407.798-.09.197-.181.408-.273.633a35.178 35.178 0 0 1 2.545-1.068 34.72 34.72 0 0 1 8.162-2l2.154-.25-1.25 1.732a7.93 7.93 0 0 0-.29.47c-.172.3-.344.64-.511 1.013z"/><path fill="#2074AD" d="M27.397 22.232c-2.883 7.742-3.435 9.07-5.013 19.953-1.092 7.536-1.114 15.645-2.599 23.943 5.19-1.24 12.89-2.726 22.818-2.232 10.643.528 27.41.016 37.297-2.24 3.017-9.164 3.208-13.072 4.307-20.015 1.939-12.249 1.566-11.29 5.665-25.462-7.653 1.208-12.09 2.039-19.736 2.313-7.234.26-13.239.865-18.809.776-7.593-.119-16.318.606-23.93 2.964"/><path fill="#FFFFFE" fill-rule="nonzero" d="M27.048 22.109l.063-.168c7.166-2.22 15.578-3.17 24.222-3.035 3.033.048 4.779-.028 11.944-.44 2.866-.166 4.776-.262 6.846-.336 3.573-.129 6.569-.38 9.82-.803a172.2 172.2 0 0 0 4.628-.673c.928-.145 4.492-.714 5.242-.833l.574-.09-.158.547c-2.445 8.454-3.152 11.067-3.767 14.046a80.377 80.377 0 0 0-.444 2.335 208.417 208.417 0 0 0-.621 3.785c-.01.066-.605 3.871-.824 5.252-.12.758-.234 1.51-.366 2.41l-.327 2.233c-.126.854-.228 1.523-.332 2.17-.706 4.41-1.581 8.053-3.294 13.257l-.065.195-.204.047c-8.964 2.046-25.028 2.864-37.4 2.25-8.292-.413-15.217.43-22.712 2.222l-.551.132.098-.547c.706-3.947 1.015-6.905 1.593-14.083.388-4.83.614-7.161 1.004-9.848.508-3.505.887-5.856 1.258-7.773.366-1.891.737-3.42 1.203-4.973.527-1.754.9-2.792 2.57-7.28zm-1.858 7.484c-.46 1.528-.825 3.034-1.186 4.902-.369 1.905-.746 4.246-1.253 7.74-.386 2.668-.611 4.989-.999 9.804-.553 6.869-.86 9.89-1.506 13.607 7.35-1.717 14.207-2.518 22.376-2.112 12.215.606 28.065-.192 36.99-2.186 1.658-5.063 2.511-8.634 3.203-12.95.103-.645.205-1.311.33-2.163l.327-2.233c.133-.901.248-1.656.368-2.417.219-1.38.813-5.185.824-5.25.264-1.683.445-2.787.623-3.799a84.06 84.06 0 0 1 .447-2.355c.607-2.938 1.3-5.513 3.623-13.553-1.277.203-3.892.62-4.669.742-1.837.287-3.265.496-4.648.676a102.13 102.13 0 0 1-9.89.808c-2.063.074-3.968.17-6.83.335-7.187.414-8.94.49-11.999.442-8.498-.134-16.765.791-23.638 2.893-1.612 4.33-1.979 5.357-2.493 7.069z"/><path fill="#FFFFFE" d="M38.356 63.872l6.636.183c2.128-11.378 1.71-14.986 3.037-24.45 1.089-7.759 2.017-12.112 5.411-20.309h-6.868c-3.394 8.015-4.137 12.006-5.214 20.309-1.232 9.478-.903 12.886-3.002 24.267"/><path stroke="#FFFFFE" stroke-width="1.239" d="M38.356 63.872l6.636.183c2.128-11.378 1.71-14.986 3.037-24.45 1.089-7.759 2.017-12.112 5.411-20.309h-6.868c-3.394 8.015-4.137 12.006-5.214 20.309-1.232 9.478-.903 12.886-3.002 24.267z"/><path fill="#FFFFFE" d="M83.998 42.44c-8.887 1.492-11.138 1.652-19.493 2.04-14.62.681-20.143.015-23.716.194-8.467.425-13.44 1.412-19.007 2.77.185-1.903.417-4.488.789-6.665 5.567-1.36 8.789-1.875 17.286-2.339 3.572-.193 9.095.487 23.715-.193 8.355-.39 11.442-.64 21.57-2.49.063-.01-1.079 6.67-1.144 6.682"/><path stroke="#FFFFFE" stroke-width="1.239" d="M83.998 42.44c-8.887 1.492-11.138 1.652-19.493 2.04-14.62.681-20.143.015-23.716.194-8.467.425-13.44 1.412-19.007 2.77.185-1.903.417-4.488.789-6.665 5.567-1.36 8.789-1.875 17.286-2.339 3.572-.193 9.095.487 23.715-.193 8.355-.39 11.442-.64 21.57-2.49.063-.01-1.079 6.67-1.144 6.682z"/></g></svg>