<?xml version="1.0" standalone="no"?>
<!DOCTYPE svg PUBLIC "-//W3C//DTD SVG 20010904//EN"
 "http://www.w3.org/TR/2001/REC-SVG-20010904/DTD/svg10.dtd">
<svg version="1.0" xmlns="http://www.w3.org/2000/svg"
 width="1024.000000pt" height="1024.000000pt" viewBox="0 0 1024.000000 1024.000000"
 preserveAspectRatio="xMidYMid meet">
<metadata>
Created by potrace 1.11, written by Peter Selinger 2001-2013
</metadata>
<g transform="translate(0.000000,1024.000000) scale(0.100000,-0.100000)"
fill="#000000" stroke="none">
<path d="M4765 10210 c-1011 -81 -1908 -415 -2698 -1006 -1776 -1327 -2487
-3637 -1769 -5744 130 -380 355 -832 592 -1185 289 -433 681 -852 1115 -1191
524 -410 1172 -727 1840 -899 439 -113 793 -157 1270 -159 319 0 462 9 745 50
1776 255 3314 1461 3986 3128 492 1218 497 2583 14 3796 -53 133 -171 394
-211 465 -9 17 -45 82 -80 145 -382 693 -963 1319 -1639 1765 -703 463 -1435
724 -2310 820 -170 19 -690 28 -855 15z m635 -200 c887 -61 1693 -332 2415
-813 270 -180 495 -366 740 -612 259 -259 438 -478 630 -770 663 -1010 924
-2208 744 -3415 -125 -835 -480 -1648 -1008 -2305 -229 -285 -537 -589 -821
-810 -683 -531 -1520 -879 -2380 -989 -427 -55 -926 -46 -1383 24 -1636 251
-3070 1372 -3721 2907 -231 547 -354 1086 -386 1700 -10 184 -2 489 15 653 70
653 214 1164 479 1705 575 1172 1568 2046 2816 2477 401 138 808 216 1310 251
108 8 417 6 550 -3z"/>
<path d="M6621 9164 c-85 -36 -157 -67 -159 -69 -3 -3 13 -13 36 -23 35 -15
53 -17 124 -10 227 22 252 27 271 49 24 30 21 66 -8 94 -39 40 -87 33 -264
-41z"/>
<path d="M4877 9206 c-4 -10 -1 -18 6 -20 6 -2 31 -9 55 -15 80 -22 78 -6 53
-469 -14 -245 -27 -417 -34 -432 -15 -31 -52 -50 -100 -50 -34 0 -38 -3 -35
-22 3 -22 8 -23 128 -29 599 -31 802 -40 804 -37 2 2 20 75 41 163 21 88 40
166 42 173 3 7 -4 12 -20 12 -20 0 -32 -13 -66 -69 -56 -95 -118 -155 -189
-181 -102 -39 -266 -39 -313 -1 l-22 18 17 329 c26 494 29 524 61 552 20 17
39 22 81 22 50 0 54 2 54 23 0 23 -2 24 -122 30 -386 21 -434 21 -441 3z"/>
<path d="M4226 9116 c-4 -19 -12 -39 -19 -45 -8 -6 -72 -10 -168 -9 -142 1
-160 -1 -227 -25 -101 -35 -174 -82 -238 -150 -137 -148 -175 -336 -110 -543
95 -297 379 -438 710 -350 108 29 214 75 296 129 104 69 98 51 62 180 -18 63
-32 130 -32 150 0 42 25 73 71 89 30 10 42 48 14 48 -8 0 -126 -29 -263 -65
-138 -36 -252 -65 -256 -65 -3 0 -6 -9 -6 -20 0 -19 5 -20 68 -14 94 9 105 -2
143 -136 16 -58 29 -119 29 -136 0 -81 -168 -139 -297 -103 -180 49 -364 520
-300 767 33 124 121 187 262 187 70 0 88 -4 147 -33 41 -20 97 -61 145 -105
49 -46 84 -72 96 -69 9 2 17 6 17 9 0 4 -21 82 -47 175 -42 153 -48 168 -69
168 -17 0 -23 -7 -28 -34z"/>
<path d="M6286 9054 c-8 -22 -9 -21 18 -28 37 -9 86 -60 86 -89 0 -14 -47
-151 -106 -304 -58 -153 -122 -322 -142 -377 -20 -54 -47 -109 -60 -123 -22
-24 -28 -25 -87 -19 -50 5 -64 3 -68 -9 -4 -8 -3 -16 1 -19 4 -2 120 -43 257
-91 138 -48 255 -90 261 -92 6 -2 14 5 17 16 4 16 -4 24 -38 41 -24 12 -49 27
-55 35 -29 35 -24 51 223 698 25 65 53 129 61 142 21 32 56 40 109 26 36 -9
44 -8 55 6 10 14 10 18 0 24 -21 11 -504 179 -515 179 -6 0 -14 -7 -17 -16z"/>
<path d="M2565 8043 c-215 -51 -396 -181 -530 -379 -101 -149 -157 -299 -170
-456 -7 -85 -34 -149 -153 -362 -70 -124 -67 -126 -76 49 -9 179 -59 339 -148
478 l-31 48 -39 -38 c-69 -67 -152 -203 -188 -310 -30 -87 -34 -113 -38 -238
-7 -215 36 -400 139 -595 58 -109 58 -95 8 -303 l-31 -128 -67 133 c-36 73
-87 165 -114 204 -59 89 -170 210 -184 201 -17 -11 -59 -106 -84 -192 -20 -69
-24 -101 -23 -235 0 -134 4 -168 26 -250 56 -208 199 -444 341 -562 l44 -36 7
-179 c4 -98 9 -196 12 -218 6 -39 5 -39 -48 40 -29 44 -98 125 -153 181 -82
82 -115 108 -185 143 -46 23 -93 41 -105 39 -25 -4 -33 -50 -34 -188 -3 -372
219 -712 598 -919 l66 -36 47 -140 c25 -77 47 -148 47 -158 1 -13 -17 -5 -77
37 -146 102 -289 163 -404 173 l-68 6 0 -65 c0 -69 24 -173 59 -251 122 -279
475 -537 784 -573 51 -6 61 -11 86 -43 67 -85 155 -231 139 -231 -2 0 -55 9
-118 20 -175 31 -329 37 -423 16 -46 -10 -77 -22 -77 -30 0 -20 113 -186 172
-250 201 -225 521 -338 864 -306 l117 11 126 -85 c69 -46 136 -95 148 -108 35
-37 18 -49 -57 -38 -95 14 -276 12 -350 -4 -64 -14 -161 -47 -190 -65 -22 -15
2 -51 95 -146 127 -129 250 -203 410 -246 64 -17 110 -22 230 -23 173 -1 258
13 447 74 l122 39 74 -25 c40 -13 94 -35 119 -48 l46 -23 -69 -21 c-146 -44
-317 -137 -396 -215 -32 -32 -56 -74 -46 -81 1 -1 23 -18 48 -38 70 -56 169
-106 256 -129 96 -26 275 -31 379 -10 213 42 498 186 560 282 l20 31 105 -6
c58 -4 188 -11 290 -17 102 -6 264 -8 361 -5 l176 7 84 -63 c137 -104 317
-189 494 -233 187 -48 377 -44 537 11 71 24 201 94 214 115 26 42 -290 247
-471 305 -82 26 -96 18 144 94 l163 52 57 -25 c266 -115 679 -99 967 37 110
52 163 88 244 163 l61 56 -21 22 c-57 61 -252 111 -476 123 l-134 7 107 86
c60 47 134 104 165 126 l57 40 68 -10 c37 -5 136 -7 218 -4 119 4 172 11 255
32 181 47 346 136 472 254 68 63 178 199 178 218 0 14 -104 38 -230 54 -155
19 -343 -1 -433 -46 -26 -13 -28 -13 -23 1 9 22 184 280 199 292 8 7 67 30
133 52 390 134 647 334 766 599 34 75 81 248 72 263 -12 18 -135 1 -221 -30
-95 -35 -234 -111 -346 -189 -43 -30 -80 -53 -83 -51 -2 2 32 105 75 227 l78
223 63 34 c185 98 378 301 477 499 71 142 99 280 90 438 -8 118 -27 201 -48
205 -47 9 -353 -265 -429 -383 l-32 -50 6 153 c3 84 9 159 13 166 4 8 36 35
70 60 166 125 303 356 342 580 14 76 14 245 1 322 -16 89 -61 225 -77 231 -33
13 -150 -90 -223 -197 -47 -69 -122 -210 -145 -273 -10 -26 -19 -46 -21 -44
-2 2 -22 93 -44 202 -23 110 -48 226 -56 258 l-15 58 40 98 c72 181 86 253 86
451 0 202 -14 267 -89 426 -43 90 -135 236 -158 250 -18 12 -93 -81 -138 -171
-53 -106 -72 -201 -68 -338 2 -59 2 -107 2 -107 -1 0 -39 57 -84 126 -70 106
-87 142 -112 227 -98 334 -266 545 -545 686 -80 39 -251 96 -261 86 -10 -10
19 -232 39 -305 75 -262 250 -452 548 -596 155 -75 182 -95 250 -184 52 -70
131 -199 131 -215 0 -4 -18 9 -41 30 -85 76 -203 135 -354 175 -91 24 -258 50
-324 50 l-44 0 6 -45 c12 -85 99 -234 201 -343 176 -188 440 -316 703 -339 88
-8 88 -8 105 -43 18 -37 64 -236 74 -316 l6 -49 -19 26 c-71 102 -288 295
-390 348 -74 37 -79 33 -92 -91 -23 -212 62 -489 210 -689 67 -91 201 -216
300 -280 l82 -53 -7 -101 c-9 -141 -28 -305 -35 -305 -3 0 -18 39 -34 87 -38
120 -117 276 -178 353 -61 76 -150 155 -175 155 -25 0 -80 -106 -104 -200 -22
-88 -26 -225 -10 -321 39 -220 188 -509 341 -661 l62 -63 -12 -42 c-17 -58
-152 -401 -163 -413 -4 -5 -8 12 -8 38 0 76 -29 261 -60 386 -32 125 -84 242
-124 281 l-26 24 -31 -30 c-43 -39 -111 -146 -142 -219 -88 -214 -95 -510 -15
-755 25 -78 70 -170 110 -227 l30 -41 -26 -49 c-42 -76 -186 -260 -171 -218
14 39 18 385 6 455 -13 70 -40 127 -67 137 -24 9 -146 -80 -218 -159 -127
-140 -219 -342 -251 -555 -19 -124 -19 -188 0 -286 26 -136 28 -131 -86 -217
-177 -132 -331 -240 -344 -240 -2 0 13 29 35 65 79 128 144 277 175 396 29
112 18 269 -19 269 -20 0 -148 -46 -196 -70 -170 -85 -312 -245 -417 -467 -46
-96 -117 -305 -148 -431 l-17 -73 -67 -30 c-77 -35 -231 -89 -256 -89 -12 0 0
19 38 62 124 142 246 371 255 477 l5 54 -104 -6 c-57 -3 -131 -13 -164 -22
-83 -22 -247 -105 -327 -166 -147 -110 -319 -305 -411 -465 l-42 -71 -80 -7
c-207 -16 -769 -3 -827 19 -9 4 -30 41 -48 83 -174 418 -463 626 -927 667
l-73 6 0 -59 c0 -131 48 -220 217 -398 62 -65 111 -119 110 -121 -6 -5 -145
36 -211 63 l-65 26 -21 91 c-47 210 -130 413 -214 531 -89 125 -223 234 -365
299 -72 32 -227 87 -248 87 -18 0 -17 -119 2 -207 17 -83 62 -214 104 -307 24
-53 27 -66 14 -55 -10 8 -53 45 -95 82 l-77 68 6 152 c16 446 -154 793 -481
982 l-50 28 -22 -27 c-38 -43 -47 -98 -40 -231 3 -66 13 -165 21 -219 9 -54
14 -100 12 -102 -5 -5 -118 152 -147 204 l-24 42 36 68 c178 334 149 811 -65
1070 -23 28 -45 51 -50 51 -4 1 -28 -18 -52 -40 -80 -74 -125 -201 -145 -411
-15 -155 -21 -191 -30 -182 -4 5 -32 82 -61 171 l-52 162 39 43 c86 93 178
254 227 399 31 88 57 238 57 324 0 133 -44 313 -107 438 -19 39 -27 46 -41 38
-86 -47 -229 -311 -285 -529 -15 -58 -27 -87 -31 -77 -3 9 -6 117 -6 240 l0
223 73 54 c175 132 300 282 392 471 89 183 128 347 123 517 l-3 95 -29 3 c-87
10 -286 -147 -432 -340 -41 -54 -74 -91 -74 -81 0 27 56 272 73 318 13 36 20
42 77 63 203 73 440 218 583 356 129 125 272 402 250 485 -6 22 -9 23 -72 17
-92 -10 -224 -57 -368 -132 -67 -35 -125 -64 -128 -64 -13 0 77 155 108 188
17 18 86 62 152 98 66 36 143 84 170 107 109 89 232 255 303 407 66 141 84
207 89 323 l6 107 -39 -1 c-22 -1 -48 -3 -59 -6z m-10 -165 c-9 -56 -66 -197
-107 -265 -89 -147 -212 -282 -321 -354 -61 -40 -144 -76 -153 -67 -3 3 4 46
16 96 45 191 154 360 318 494 79 65 203 137 235 138 16 0 18 -5 12 -42z m5154
-18 c199 -93 389 -340 445 -579 14 -62 14 -62 -7 -55 -236 70 -557 436 -557
635 0 40 1 41 28 35 15 -4 56 -20 91 -36z m1060 -668 c71 -187 67 -461 -11
-676 -8 -22 -20 -42 -26 -44 -26 -8 -109 210 -138 365 -12 65 -15 122 -12 218
4 112 9 139 33 200 41 104 43 105 87 55 21 -24 50 -75 67 -118z m-7301 -14
c65 -135 82 -368 46 -603 -9 -57 -73 -255 -83 -255 -17 0 -93 176 -111 259
-35 156 -21 348 35 486 39 97 71 154 87 155 3 0 15 -19 26 -42z m782 -309 c0
-47 -133 -222 -244 -321 -129 -115 -338 -244 -430 -264 -26 -6 -28 -5 -21 17
17 56 64 137 126 213 110 137 273 254 460 331 90 37 109 41 109 24z m5768 -30
c80 -25 198 -82 275 -133 104 -69 248 -210 282 -276 l16 -30 -40 0 c-139 0
-447 145 -572 270 -52 52 -129 164 -129 188 0 19 70 11 168 -19z m1271 -791
c26 -205 -36 -461 -153 -637 -47 -69 -131 -159 -141 -149 -15 14 -27 153 -22
243 7 123 40 233 108 365 50 96 171 270 188 270 5 0 14 -42 20 -92z m-8237 -1
c140 -184 209 -401 207 -651 -1 -150 -4 -157 -53 -109 -108 108 -209 278 -247
418 -29 105 -31 251 -5 352 21 85 26 85 98 -10z m7408 -42 c156 -133 278 -293
339 -445 27 -68 35 -103 39 -177 3 -58 1 -93 -5 -93 -5 0 -36 17 -69 38 -181
118 -332 394 -388 710 -5 29 -4 31 12 23 9 -5 42 -31 72 -56z m-6624 -24 c-23
-255 -212 -596 -401 -724 -22 -15 -44 -27 -49 -27 -13 0 1 144 22 225 43 161
136 323 264 461 60 64 147 134 166 134 3 0 2 -31 -2 -69z m6684 -883 c137
-195 250 -511 250 -699 0 -63 -17 -159 -29 -159 -9 0 -91 87 -123 131 -34 46
-111 200 -133 264 -65 195 -79 381 -39 518 9 29 22 20 74 -55z m840 -115 c-2
-250 -183 -572 -403 -714 -84 -54 -91 -53 -82 19 12 102 35 183 76 271 88 189
196 333 342 459 58 49 67 44 67 -35z m-7643 -44 c60 -177 0 -450 -154 -700
-80 -130 -95 -128 -101 17 -7 149 38 380 108 562 33 86 99 194 115 189 6 -2
20 -32 32 -68z m-796 -55 c193 -121 362 -414 405 -699 l7 -47 -24 12 c-70 36
-224 180 -295 276 -91 123 -139 236 -159 376 -8 50 1 108 16 108 5 0 28 -12
50 -26z m7418 -801 c24 -49 58 -183 72 -291 13 -101 7 -407 -10 -467 -19 -66
-44 -116 -55 -112 -23 7 -74 99 -99 178 -54 173 -61 402 -18 563 21 79 64 166
81 166 5 0 18 -17 29 -37z m-6431 -85 c54 -111 72 -181 79 -318 6 -131 -12
-261 -52 -372 -28 -79 -45 -108 -62 -108 -17 0 -67 112 -89 200 -26 103 -27
403 -2 501 18 71 65 179 78 179 4 0 26 -37 48 -82z m7266 -275 c-40 -177 -271
-426 -479 -519 -69 -30 -195 -68 -202 -60 -9 9 33 110 70 168 90 140 273 289
470 382 143 67 150 68 141 29z m-7859 -138 c186 -92 332 -224 396 -360 27 -56
39 -125 22 -125 -46 0 -207 75 -302 140 -161 110 -295 279 -325 412 l-6 28 52
-20 c29 -12 103 -45 163 -75z m969 -437 c46 -46 94 -101 108 -123 69 -110 111
-207 145 -335 17 -68 25 -278 11 -313 -8 -18 -9 -18 -39 0 -29 17 -75 64 -127
129 -39 50 -140 266 -166 354 -42 149 -57 370 -24 370 5 0 46 -37 92 -82z
m5710 26 c25 -189 -22 -414 -124 -585 -36 -60 -151 -189 -169 -189 -14 0 -31
100 -31 185 0 150 37 275 127 428 45 78 157 207 179 207 6 0 14 -21 18 -46z
m-6169 -565 c142 -18 316 -87 430 -172 93 -70 178 -167 161 -184 -12 -12 -197
-15 -261 -4 -167 29 -344 118 -465 233 -45 42 -100 109 -100 121 0 5 42 11
115 15 17 1 70 -3 120 -9z m6804 -8 c12 -8 9 -16 -15 -43 -112 -130 -313 -228
-559 -274 -108 -20 -256 -24 -262 -8 -5 15 48 70 117 121 123 90 288 164 435
193 96 20 261 26 284 11z m-5705 -146 c106 -53 175 -105 256 -191 129 -139
221 -315 245 -473 l7 -44 -28 7 c-48 12 -165 83 -238 145 -140 118 -253 282
-306 440 -33 100 -46 161 -33 161 5 0 48 -20 97 -45z m4291 -2 c-22 -151 -152
-394 -286 -538 -64 -68 -166 -147 -206 -159 l-21 -7 18 83 c21 97 68 222 110
293 16 28 38 66 49 87 52 93 270 288 323 288 18 0 20 -4 13 -47z m-3380 -485
c217 -73 393 -220 483 -404 33 -67 47 -114 33 -114 -28 0 -158 48 -236 87
-123 62 -228 138 -312 226 -68 72 -133 179 -133 220 0 18 5 19 52 13 29 -4 80
-16 113 -28z m2495 -29 c0 -27 -88 -173 -144 -240 -135 -162 -340 -287 -497
-305 -60 -7 -61 -7 -54 16 35 110 218 314 370 412 139 90 325 157 325 117z
m-3499 -134 c170 -26 361 -82 463 -138 33 -18 61 -37 63 -43 5 -15 -100 -60
-171 -73 -135 -25 -339 -7 -481 41 -134 46 -322 161 -312 191 11 35 268 47
438 22z m4871 -37 c21 -8 40 -17 43 -20 8 -8 -59 -59 -125 -96 -208 -116 -600
-150 -761 -66 -30 15 -30 16 -12 36 42 47 236 118 408 149 121 22 385 20 447
-3z m-3407 -442 c74 -24 81 -30 68 -59 -26 -56 -209 -148 -366 -184 -103 -23
-332 -23 -412 1 -76 22 -145 47 -145 53 0 9 65 59 116 90 68 41 177 81 284
104 110 23 377 21 455 -5z m1886 -31 c102 -19 229 -66 308 -115 121 -73 122
-77 38 -107 -82 -28 -310 -25 -442 6 -159 38 -325 105 -395 160 l-25 20 30 11
c28 11 134 34 200 44 49 7 204 -3 286 -19z"/>
<path d="M6828 6981 c-31 -10 -72 -28 -91 -40 -39 -24 -129 -117 -167 -174
-14 -20 -32 -37 -40 -37 -9 0 -34 19 -55 41 -45 46 -132 90 -215 109 -42 9
-88 9 -190 2 -155 -12 -241 -33 -407 -98 l-118 -46 -160 -2 c-194 -2 -236 -13
-313 -86 -59 -55 -62 -56 -238 -69 -133 -11 -202 -30 -323 -90 -49 -25 -113
-46 -181 -60 -58 -12 -142 -33 -188 -47 -45 -14 -108 -29 -139 -35 -31 -6
-106 -26 -166 -45 -121 -38 -116 -38 -292 3 -99 23 -123 25 -241 19 -96 -4
-161 -13 -245 -35 -63 -16 -132 -32 -154 -35 -22 -4 -71 -15 -110 -26 -149
-40 -249 -53 -312 -39 -87 18 -202 16 -240 -4 -75 -40 -96 -104 -65 -199 44
-137 121 -338 152 -397 75 -140 194 -181 254 -88 8 12 25 67 37 122 37 175 64
202 186 191 38 -3 120 -10 183 -15 63 -5 145 -14 183 -21 57 -10 94 -9 240 6
220 24 306 22 440 -9 60 -14 110 -27 112 -29 4 -4 -225 -144 -344 -210 -41
-23 -120 -52 -211 -76 -80 -22 -171 -50 -202 -62 -71 -26 -185 -107 -318 -225
-56 -49 -111 -95 -123 -102 -15 -8 -51 -10 -118 -6 -108 7 -148 -7 -169 -57
-6 -15 -33 -49 -61 -76 -27 -26 -49 -53 -49 -59 0 -6 -16 -26 -35 -45 -39 -38
-55 -82 -55 -151 0 -33 -9 -62 -30 -100 -108 -194 -132 -279 -111 -382 15 -71
63 -136 113 -155 85 -33 159 17 254 172 55 87 119 166 136 166 4 0 35 -20 69
-45 107 -79 183 -84 223 -15 16 27 22 57 24 138 4 98 5 104 28 113 14 5 113
11 222 14 227 7 351 25 466 68 74 27 90 30 186 27 340 -8 546 -3 672 19 70 12
139 26 154 31 14 6 46 10 71 10 50 0 96 -29 196 -122 44 -41 47 -48 47 -94 0
-27 -9 -85 -19 -129 -42 -174 -54 -293 -54 -515 0 -118 5 -228 10 -245 7 -21
5 -44 -5 -78 -15 -52 -13 -100 8 -214 13 -70 13 -77 -16 -200 -26 -113 -29
-146 -29 -288 0 -88 4 -210 9 -271 10 -129 -5 -305 -34 -390 -16 -46 -18 -78
-14 -239 4 -206 8 -222 71 -274 49 -40 113 -61 187 -61 192 1 255 149 161 376
-48 116 -55 161 -44 268 14 117 35 196 128 481 98 297 108 355 90 530 -11 116
-11 140 5 234 10 58 31 137 46 176 38 95 94 305 115 430 9 55 23 114 31 131
18 38 62 59 274 134 412 145 477 172 571 232 131 85 195 186 214 343 11 83 11
83 116 32 200 -97 363 -115 524 -59 61 21 130 87 165 157 20 41 25 65 25 130
0 95 -23 150 -89 219 -57 58 -116 91 -249 138 -95 34 -126 40 -207 43 -52 1
-102 6 -111 9 -11 5 -20 31 -28 79 -16 91 -53 215 -103 340 -21 53 -38 99 -38
101 0 2 23 -5 51 -15 65 -25 132 -15 239 37 60 30 96 58 176 138 130 131 157
181 162 313 4 90 3 97 -28 158 -40 79 -119 156 -197 193 -76 35 -200 41 -285
13z m-1374 -341 c25 -12 46 -25 46 -29 0 -14 -46 -22 -87 -16 -42 6 -51 2 -76
-35 -17 -24 -17 -24 -17 -2 0 18 -6 22 -34 22 -26 0 -35 -5 -39 -21 -7 -25
-27 -16 -27 12 0 34 -42 20 -62 -21 -13 -29 -18 -32 -23 -17 -13 31 3 64 39
81 27 13 149 37 222 45 6 0 32 -8 58 -19z m1085 -94 c15 -8 53 -44 85 -80 89
-101 138 -107 265 -30 78 47 92 45 72 -9 -13 -33 11 -67 46 -67 14 0 53 18 86
41 67 44 81 39 47 -17 -41 -65 -179 -153 -275 -174 -44 -10 -52 -8 -120 25
-79 39 -78 40 -179 -11 -59 -29 -86 -30 -114 -6 -38 31 -124 146 -143 190 -17
39 -17 46 -4 72 8 16 21 32 27 37 10 6 134 36 171 42 4 0 20 -5 36 -13z m-464
-430 c121 -22 182 -44 221 -78 83 -73 97 -170 39 -284 -18 -38 -56 -96 -82
-129 -26 -33 -57 -73 -67 -90 -45 -71 -164 -225 -217 -281 -32 -34 -63 -73
-68 -87 -6 -14 -7 -71 -4 -129 l6 -104 -29 -23 c-16 -12 -58 -40 -93 -62 -54
-35 -68 -39 -87 -30 -57 26 -123 162 -127 261 -2 55 3 68 85 232 73 147 130
247 231 408 34 54 16 71 -105 105 -69 19 -90 44 -95 118 -5 65 18 105 82 142
73 43 181 54 310 31z m568 -32 c30 -42 77 -171 77 -210 0 -28 -7 -29 -69 -9
-25 8 -65 19 -88 25 l-43 11 0 57 c0 77 14 123 47 149 35 28 41 26 76 -23z
m91 -395 c23 -11 46 -47 46 -72 0 -7 -37 -31 -83 -54 -66 -34 -88 -51 -105
-82 -27 -47 -29 -117 -6 -203 22 -86 17 -93 -48 -67 -128 50 -288 171 -288
218 0 59 96 183 171 222 101 51 245 69 313 38z m273 -174 c93 -18 191 -63 220
-103 48 -66 47 -128 -6 -287 -38 -116 -63 -140 -136 -132 -63 6 -250 88 -316
137 -123 92 -161 218 -93 307 64 84 169 109 331 78z m-1924 -11 c64 -22 102
-68 127 -157 43 -146 47 -153 190 -312 76 -85 153 -175 171 -202 72 -107 98
-133 134 -133 33 0 43 6 212 122 29 20 90 51 135 68 110 42 138 58 138 75 0 7
-9 17 -20 20 -11 3 -20 9 -20 13 0 12 142 62 203 72 61 10 149 0 194 -22 39
-19 73 -74 73 -118 0 -136 -120 -245 -380 -345 -321 -123 -530 -195 -568 -195
-50 0 -94 25 -171 96 -89 82 -147 171 -238 364 -128 271 -132 276 -214 351
-146 133 -167 231 -64 299 36 24 39 24 98 4z"/>
</g>
</svg>
