<svg xmlns="http://www.w3.org/2000/svg" viewBox="0 0 1027.086 1024.886">
  <path d="M513.985 3.482c284.993.374 509.233 230.34 510.192 507.331 1.005 289.88-234.61 515.395-514.535 512.45-283.185-2.98-505.209-232.748-505.281-509.85C4.288 231.799 232.654 3.482 513.985 3.483zm-1.54 20.08C250.086 23.562 28.188 233.52 24.92 506.26c-3.235 270.02 214.595 493.967 489.919 493.357 263.204-.583 485.834-213.366 486.123-489.192.281-268.104-219.3-486.87-488.516-486.865z"/>
  <path d="M512.445 23.561c269.216-.004 488.797 218.761 488.516 486.865-.289 275.826-222.92 488.61-486.123 489.192-275.324.61-493.154-223.336-489.919-493.357 3.269-272.74 225.167-482.698 487.526-482.7zm257.456 301.583c.444 2.819.279 5.004 1.133 6.662 4.468 8.67 8.074 18.092 14.036 25.626 20.332 25.693 47.467 39.003 80.151 41.189 1.996.133 5.242 1.29 5.63 2.63 3.438 11.858 6.361 23.864 9.436 35.827l-1.55.536c-1.764-2.137-3.461-4.333-5.303-6.401-10.58-11.882-22.118-22.663-36.147-30.42-4.781-2.643-6.444-2.008-6.887 3.346-.696 8.405-1.763 17.063-.53 25.293 5.306 35.454 24.05 62.217 54.667 80.667 2.773 1.671 4.167 3.294 3.84 6.633-.91 9.277-1.533 18.582-2.37 27.867-.26 2.872-.843 5.714-1.278 8.57-8.227-23.385-17.456-45.574-40.243-61.026-3.308 7.588-7.004 14.126-9.046 21.146-4.568 15.702-2.719 31.386 2.419 46.673 7.259 21.599 17.836 41.192 35.034 56.725 1.017.918 1.304 3.662.764 5.126-4.61 12.494-9.478 24.892-14.3 37.308-.554 1.424-1.297 2.775-2.469 5.253-.63-6.462-.982-11.57-1.652-16.638-2.076-15.713-4.635-31.351-11.788-45.716-1.985-3.987-5.086-7.418-8.317-12.02-4.322 5.58-8.046 9.658-10.948 14.253-19.552 30.956-17.482 81.894 4.284 111.335.798 1.079 1.868 2.995 1.442 3.781-5.103 9.447-11.096 18.284-18.117 25.623.158-13.032.76-26.156.27-39.24-.21-5.645-2.312-11.336-4.249-16.758-1.235-3.458-4.11-4.615-7.566-1.914-2.622 2.05-5.635 3.632-8.103 5.837-28.951 25.86-39.454 58.225-33.716 96.259.322 2.137 1.156 4.365.811 6.391-.37 2.179-1.314 4.848-2.935 6.128-9.018 7.12-18.278 13.938-27.54 20.743-4.3 3.158-8.794 6.052-13.2 9.067.023-1.922.675-3.042 1.34-4.154 8.648-14.493 16.548-29.323 19.837-46.103 1.512-7.717 1.966-15.424-1.781-22.857-1.358.23-2.346.328-3.3.566-26.486 6.605-43.92 23.955-56.222 47.393-8.501 16.195-13.67 33.571-18.237 51.17-.486 1.872-.96 4.587-2.283 5.267-10.189 5.233-20.724 9.667-32.249 11.95.14-.77.095-1.168.272-1.381.638-.766 1.356-1.465 2.036-2.196 11.141-11.97 19.56-25.674 25.684-40.785 1.303-3.212 2.091-6.657 2.862-10.053.73-3.212-.326-4.787-4.092-4.892-12.409-.35-24.266 1.928-35.405 7.254-27.782 13.283-47.38 35.102-62.635 61.212-1.824 3.123-3.59 4.728-7.241 4.711-25.637-.116-51.274-.134-76.911-.118-6.994.004-12.267-2.122-13.93-9.751-.418-1.915-1.513-3.689-2.343-5.507-18.263-40.034-49.995-59.522-93.39-61.375-3.864-.165-4.882 1.116-4.696 4.817.431 8.532 2.355 16.65 7.582 23.408 5.279 6.825 11.3 13.078 17.057 19.528 2.661 2.981 5.467 5.834 8.207 8.745l-.832 1.268c-7.191-2.458-14.376-4.935-21.577-7.365-3.624-1.223-5.36-3.527-6.203-7.452-4.175-19.452-9.83-38.407-21.062-55.185-15.195-22.697-37.755-33.74-63.832-40.511-1.584 20.864 6.505 38.786 13.66 57.052-5.27-4.05-10.34-8.125-14.876-12.726-1.57-1.592-2.492-4.474-2.55-6.795-.277-11.293.935-22.726-.392-33.87-3.86-32.428-18.876-58.231-47.693-75.024-4.762-2.776-6.12-2.565-8.293 2.551-1.406 3.31-2.405 6.98-2.648 10.553-.348 5.125-.137 10.338.371 15.46.849 8.565 2.12 17.087 3.214 25.628l-1.404.816c-4.997-7.71-10.073-15.373-14.88-23.2-.548-.894.067-2.91.726-4.077 14.896-26.363 17.256-54.239 9.684-83.126-3.286-12.537-9.294-23.758-19.009-32.866-8.053 4.283-12.581 11.133-14.69 19.128-2.49 9.446-3.872 19.196-5.468 28.858-.833 5.043-1.095 10.18-1.614 15.275l-1.519.11c-3.153-9.778-6.238-19.579-9.501-29.32-1.018-3.037-.267-4.986 1.847-7.465 21.026-24.668 31.95-52.785 28.07-85.62-1.497-12.664-5.561-24.531-12.635-36.676-18.611 17.649-25.856 40.044-32.119 63.44-.316-1.049-.735-1.798-.74-2.55-.085-14.16-.274-28.322.01-42.475.04-1.948 2.077-4.422 3.87-5.68 14.953-10.491 27.403-23.318 36.704-39.038 12.2-20.621 19.486-42.65 18.012-66.973-.328-5.42-1.41-6.389-6.53-4.424-5.223 2.005-10.478 4.424-15 7.665-11.638 8.336-20.53 19.4-28.823 30.945-.97 1.35-2.006 2.652-3.011 3.976l-1.35-.651c2.77-11.108 5.425-22.246 8.439-33.286.422-1.548 2.38-3.268 3.994-3.809 16.268-5.448 30.899-13.948 45.143-23.321 18.028-11.864 30.407-28.186 38.63-47.866 2.101-5.026 4.085-10.22 2.22-16.26-20.962.06-38.055 11.008-55.965 19.649 4.63-11.728 10.392-21.955 22.721-26.762 4.615-1.799 9.078-4.326 13.115-7.214 26.146-18.704 40.804-44.599 46.494-75.841.747-4.104.103-8.461.103-13.253-3.486.376-5.803.434-8.038.894-37.134 7.643-68.58 43.835-71.36 81.798-.337 4.592-.882 9.53-2.845 13.574-5.721 11.787-12.21 23.202-18.398 34.763-1.038-24.268-4.796-47.437-20.107-67.563-13.724 12.69-22.561 27.84-25.444 46.091-4.37 27.668 2.14 53.213 15.923 77.215.952 1.659 2.21 3.78 1.904 5.42-1.97 10.556-4.337 21.038-6.574 31.545-10.211-19.647-19.439-39.305-37.123-53.888-7.149 13.015-11.03 26.175-11.166 40.226-.333 34.418 13.468 62.626 38.623 85.55 2.507 2.285 3.312 4.41 3.335 7.651.058 8.32.536 16.64.93 24.955.182 3.862.56 7.714.955 12.985-13.538-19.995-27.21-37.742-51.005-44.521-2.692 14.937-2.723 28.835.883 42.564 8.675 33.022 30.456 55.034 59.816 70.59 1.411.748 3.36 1.607 3.811 2.863 3.574 9.945 6.845 19.999 10.67 31.393-17.924-12.28-34.185-24.32-56.468-23.647.333 5.04.267 9.38.96 13.593 3.14 19.08 13.101 34.382 27.214 47.077 16.946 15.243 36.018 26.206 59.366 28.197 1.827.156 4.01 1.74 5.156 3.301 4.231 5.768 8.125 11.785 12.078 17.753 1.101 1.662 1.97 3.478 3.348 5.94-21.526-2.727-41.917-8.774-62.802-1.24.39 1.14.514 1.78.81 2.327 10.31 19.095 24.348 34.501 44.034 44.254 20.904 10.355 43.042 12.04 65.812 9.282 1.767-.214 4.041-.681 5.312.147 8.923 5.813 17.692 11.87 26.37 18.045 1.069.76 1.315 2.676 1.942 4.056-1.373.195-2.753.6-4.117.551-9.966-.356-19.951-1.417-29.886-1.05-10 .368-19.541 3.387-28.427 8.72.429.881.626 1.507.992 2.01 17.749 24.424 41.31 38.167 71.858 38.955 18.791.485 36.616-4.206 54.196-10.232 1.96-.672 4.394-1.389 6.207-.816 7.403 2.337 14.65 5.168 23.244 8.284-2.434.958-3.335 1.292-4.22 1.663-9.948 4.167-20.238 7.691-29.716 12.741-6.156 3.28-11.21 8.69-16.587 13.342-2.307 1.996-2.333 4.425.557 6.095 8.163 4.717 15.958 10.465 24.673 13.747 17.13 6.452 34.802 4.884 52.058-.262 16.744-4.993 32.588-12.053 44.949-24.869 2.79-2.893 5.105-3.97 8.875-3.676 28.249 2.207 56.512 4.011 84.87 2.05 1.443-.1 3.307.553 4.399 1.512 12.32 10.828 26.47 18.536 41.793 23.988 23.69 8.429 47.698 11.274 71.69 1.26 6.273-2.618 11.99-6.57 18.103-9.986-8.408-11.012-23.715-20.146-53.665-32.627.16-.276.262-.725.486-.798 11.401-3.691 22.79-7.424 34.253-10.915 1.356-.413 3.206.292 4.683.856 38.032 14.547 74.814 11.57 110.025-8.528 7.192-4.104 13.17-10.333 20.669-16.354-19.967-14.47-41.855-13.402-64.584-14.93 10.981-8.357 20.708-15.896 30.633-23.166 1.521-1.114 3.964-1.41 5.962-1.359 8.32.217 16.65 1.27 24.945 1.006 36.135-1.154 65.647-15.5 87.3-44.926 1.433-1.946 2.57-4.111 4.127-6.635-23.529-5.931-46.28-8.641-69.316.265 6.414-10.082 13.047-19.641 19.94-29.01 1.048-1.424 3.224-2.148 5.01-2.88 12.922-5.295 26.342-9.604 38.72-15.948 21.94-11.244 39.238-27.574 48.263-51.18 2.673-6.991 4.148-14.44 6.47-22.75-27.26-.062-46.077 15.463-66.153 28.217-.133-.672-.328-1.034-.237-1.294 4.942-14.139 9.867-28.283 14.944-42.373.44-1.223 1.766-2.27 2.909-3.074 8.808-6.198 18.539-11.384 26.354-18.638 22.117-20.531 36.115-45.27 34.486-76.61-.37-7.115-2.223-14.155-3.393-21.229l-2.077-.508c-18.14 10.68-32.527 25.525-45.484 42.323.116-9.423.543-18.7 1.433-27.93.173-1.801 1.79-3.903 3.34-5.065 26.2-19.652 39.41-45.841 39.55-78.528.057-13.289-2.864-26.02-8.81-39.034-21.318 11.439-29.368 32.228-39.2 52.452-3.499-16.23-7.018-31.64-10.01-47.15-.634-3.292-.144-7.302 1.19-10.393 12.316-28.555 15.41-57.406 3.481-86.856-4.5-11.112-10.64-21.266-18.651-30.564-18.314 16.923-22.249 38.069-20.232 61.295-8.254-12.247-16.99-23.55-20.63-38.189-4.569-18.374-14.28-34.355-28.111-47.586-14.213-13.597-31.197-21.693-50.562-25.876-.206 1.392-.488 2.347-.467 3.295.494 21.925 6.086 42.078 20.5 59.203 11.664 13.858 26.474 23.418 42.992 30.076 17.209 6.937 24.41 21.995 32.473 36.711-21.515-18.793-47.631-23.078-75.625-24.916zm-96.95 85.17c11.528 6.668 21.376 2.976 30.722-2.127 12.559-6.858 22.666-16.769 29.095-29.443 5.573-10.985 5.99-22.724-1.016-33.84-15.27-24.233-47.358-26.501-65.83-4.572-2.467 2.928-5 5.858-7.018 9.09-2.614 4.188-5.084 3.537-7.71.335-5.228-6.377-12.447-9.133-19.974-11.62-10.429-3.446-21.028-1.583-31.113.145-12.18 2.087-23.873 6.944-35.835 10.4-4.887 1.41-9.88 2.812-14.91 3.265-4.922.444-9.966-.676-14.934-.49-10.55.396-20.442 2.557-27.658 11.429-1.322 1.625-3.82 2.744-5.957 3.158-4.053.785-8.246 1.287-12.366 1.204-12.702-.256-24.256 3.373-35.327 9.29-3.472 1.855-7.291 3.239-11.109 4.238-17.851 4.673-36.006 8.358-53.551 13.964-10.612 3.391-20.297 2.854-30.756.546-8.524-1.882-17.636-3.65-26.126-2.587-16.44 2.06-32.751 5.627-48.876 9.558-13.315 3.245-26.4 6.33-40.116 3.022-1.441-.348-2.975-.372-4.47-.424-16.04-.551-22.94 8.429-17.74 23.574 3.782 11.014 7.703 22.02 12.377 32.67 2.417 5.509 5.861 11.016 10.162 15.15 7.889 7.584 16.717 4.756 19.729-5.724 1.468-5.108 2.161-10.434 3.52-15.579 2.44-9.238 6.43-12.281 15.79-11.667 9.105.597 18.328.919 27.236 2.689 15.348 3.05 30.508 2.134 45.69-.304 15.078-2.42 29.375.818 44.42 5.124-8.858 5.383-17.288 10.06-25.234 15.452-8.974 6.09-18.576 10.53-29.16 12.536-21.033 3.986-38.5 14.323-53.579 29.153-.95.934-2.044 1.724-2.956 2.69-6.138 6.498-12.78 11.116-22.464 7.73-2.192-.765-5.235-.615-7.36.314-3.02 1.321-6.023 3.34-8.201 5.797-5.007 5.649-9.66 11.632-14.156 17.703-2.203 2.975-5.414 6.529-5.26 9.68.482 9.951-4.112 17.578-9.053 25.344-1.329 2.088-2.267 4.457-3.167 6.78-3.606 9.308-4.943 18.71-.469 28.138 5.562 11.72 16.909 13.725 25.835 4.31 3.284-3.463 5.695-7.755 8.496-11.675 3.667-5.133 7.2-10.37 11.045-15.366 1.727-2.245 3.685-2.366 6.299-.24 3.959 3.222 8.28 6.253 12.91 8.333 6.682 3.003 12.556.02 14.199-7.111 1.029-4.466.981-9.23 1.02-13.864.063-7.391 1.149-8.81 8.52-9.1 9.82-.389 19.648-.615 29.473-.911 11.892-.358 23.368-2.394 34.672-6.463 5.907-2.127 12.646-2.583 19.02-2.643 15.457-.148 30.92.478 46.383.565 3.961.022 7.967-.578 11.883-1.278 8.833-1.58 17.66-3.234 26.42-5.173 8.162-1.808 12.746 3.896 18.462 7.793 9.392 6.404 11.016 14.25 8.12 25.005-7.002 26-8.323 52.513-4.49 79.233.202 1.412-.346 2.917-.41 4.385-.264 6.069-1.597 12.362-.446 18.157 1.713 8.623 1.543 16.776-.8 25.127-4.2 14.966-4.805 30.164-2.773 45.555 2.356 17.856 1.71 35.505-3.797 52.867-1.12 3.53-.916 7.549-.93 11.344-.024 6.473.599 12.96.339 19.417-.372 9.229 3.356 16.23 11.595 19.7 5.333 2.245 11.532 3.154 17.377 3.302 9.662.246 17.173-6.667 17.243-16.353.047-6.47-.8-13.623-3.611-19.3-6.252-12.626-6.932-25.394-3.302-38.381 5.102-18.254 11.1-36.256 16.657-54.383 3.44-11.222 5.975-22.638 3.81-34.41-1.97-10.702-1.514-21.251 1.207-31.646 1.806-6.9 4.913-13.464 6.665-20.375 3.594-14.181 6.733-28.48 9.924-42.761 1.176-5.26 3.596-8.966 9.045-10.839a989.366 989.366 0 0 0 36.583-13.376c12.396-4.814 24.914-9.454 36.872-15.222 14.416-6.953 23.226-18.582 24.94-34.97.306-2.926.997-5.811 1.633-9.407 3.806 1.841 7.084 3.356 10.3 4.993 14.802 7.534 30.184 11.338 46.809 7.484 22.463-5.207 32.667-30.63 18.798-48.282-4.267-5.432-10.26-10.333-16.507-13.204-11.375-5.23-23.054-10.753-36.343-8.887-1.285.18-2.647-.249-3.977-.303-3.3-.135-4.758-1.639-5.536-5.07a482.609 482.609 0 0 0-7.92-30.356c-1.68-5.667-4.264-11.067-7.002-18.012zM438.252 146.287l1.17-1.663c-2.89-10.392-5.715-20.803-8.755-31.151-.357-1.216-1.892-2.085-2.88-3.115-.93 1.132-2.386 2.138-2.691 3.42-1.03 4.326-3.554 6.087-7.905 5.834-5.982-.347-11.985-.864-17.961-.692-28.581.825-51.58 22.039-53.75 49.34-2.27 28.548 16.289 54.529 43.889 59.487 25.244 4.534 47.106-4.888 66.995-19.658 1.086-.807 1.497-3.524 1.137-5.104-1.403-6.16-3.406-12.182-4.878-18.329-1.754-7.323-.19-10.163 6.232-13.26 1.329-.64 2.212-2.205 3.3-3.344-1.685-.304-3.511-1.19-5.032-.818-12.61 3.076-25.162 6.387-37.733 9.623-2.74.705-5.548 1.213-8.19 2.178-1.094.4-1.834 1.763-2.734 2.689 1.156.542 2.27 1.366 3.48 1.544 1.083.159 2.26-.456 3.412-.621 7.26-1.04 10.117.704 12.25 7.7a443.126 443.126 0 0 1 4.492 15.856c1.17 4.418.294 8.189-3.728 10.96-11.593 7.984-29.005 5.949-37.478-5.156-14.06-18.429-20.328-39.603-19.29-62.643.637-14.142 8.75-22.98 22.514-24.312 6.148-.595 13.323.42 18.717 3.23 7.357 3.832 13.416 10.131 20.13 15.244 1.559 1.187 3.514 1.854 5.287 2.76zm147.83 31.952c-3.767-1.921-5.208-.052-6.75 2.825-10.536 19.671-23.282 26.582-44.204 24.224-8.66-.976-10.198-2.537-9.763-10.951 1.187-22.947 2.647-45.88 3.73-68.832.6-12.7 2.99-15.792 14.162-15.443 3.09.096 3.699-1.42 2.498-4.323-17.263-.848-34.538-1.74-51.82-2.464-1.318-.055-2.686 1.064-4.03 1.637 1.231.929 2.34 2.378 3.715 2.7 8.02 1.882 10.026 4.178 9.606 12.43-1.243 24.443-2.573 48.882-3.919 73.32-.371 6.748-3.58 9.653-10.439 10.273-1.559.141-3.01 1.47-4.512 2.253 1.515.806 2.99 2.219 4.551 2.32 11.131.725 22.28 1.173 33.423 1.727 16.964.843 33.925 1.772 50.897 2.438 1.662.066 4.577-1.12 4.897-2.28 2.91-10.555 5.371-21.234 7.959-31.854zm63.79 54.47c-1.584-1.312-1.92-1.707-2.345-1.925-11.072-5.676-11.547-6.92-7.123-18.62 8.005-21.176 16.008-42.353 24.002-63.533 3.679-9.746 5.602-10.752 16.063-9.04 1.365.224 2.954-.92 4.44-1.431l-.36-1.777c-16.772-5.902-33.535-11.833-50.348-17.617-.818-.281-2.078.724-3.131 1.13.661 1.058 1.069 2.568 2.023 3.104 8.975 5.044 9.778 6.987 6.273 16.246-8.31 21.948-16.597 43.904-24.936 65.84-3.544 9.324-5.475 10.267-15.445 8.644-1.326-.216-2.886.998-4.337 1.55l.467 1.694c16.617 5.831 33.218 11.71 49.89 17.381 1.081.368 2.709-.872 4.868-1.645zm-1.04-117.058l-.063 1.246c2.74 1.035 5.545 3.09 8.21 2.923 10.101-.631 20.169-1.887 30.224-3.11 4.082-.497 6.123-3.382 6.06-7.301-.068-4.127-2.937-6.264-6.694-6.826-2.237-.335-4.824-.38-6.874.42-10.356 4.04-20.588 8.4-30.863 12.648z" fill="#fff"/>
  <path d="M769.901 325.144c27.994 1.838 54.11 6.123 75.625 24.916-8.063-14.716-15.264-29.774-32.473-36.711-16.518-6.658-31.328-16.218-42.992-30.076-14.414-17.125-20.006-37.278-20.5-59.203-.021-.948.261-1.903.467-3.295 19.365 4.183 36.349 12.279 50.562 25.876 13.83 13.231 23.542 29.212 28.11 47.586 3.64 14.64 12.377 25.942 20.63 38.189-2.016-23.226 1.919-44.372 20.232-61.295 8.012 9.298 14.151 19.452 18.652 30.564 11.93 29.45 8.835 58.3-3.482 86.856-1.333 3.091-1.823 7.1-1.188 10.392 2.99 15.512 6.51 30.922 10.01 47.151 9.831-20.224 17.881-41.013 39.2-52.452 5.945 13.014 8.866 25.745 8.81 39.034-.14 32.687-13.351 58.876-39.551 78.527-1.55 1.163-3.167 3.265-3.34 5.065-.89 9.232-1.317 18.508-1.433 27.93 12.957-16.797 27.343-31.642 45.484-42.322l2.077.508c1.17 7.074 3.024 14.114 3.393 21.23 1.63 31.34-12.369 56.078-34.486 76.609-7.815 7.254-17.546 12.44-26.354 18.638-1.143.804-2.468 1.851-2.909 3.074-5.077 14.09-10.002 28.234-14.944 42.372-.091.261.104.623.237 1.295 20.076-12.754 38.893-28.279 66.154-28.217-2.323 8.31-3.798 15.759-6.471 22.75-9.025 23.606-26.323 39.936-48.262 51.18-12.38 6.344-25.8 10.653-38.722 15.948-1.785.732-3.961 1.456-5.01 2.88-6.892 9.369-13.525 18.927-19.939 29.01 23.037-8.906 45.787-6.196 69.316-.265-1.558 2.524-2.694 4.689-4.126 6.635-21.654 29.426-51.166 43.772-87.301 44.926-8.295.265-16.625-.79-24.945-1.006-1.998-.051-4.44.245-5.962 1.36-9.925 7.269-19.652 14.808-30.633 23.164 22.729 1.529 44.617.46 64.584 14.93-7.499 6.022-13.478 12.25-20.669 16.355-35.21 20.097-71.993 23.075-110.026 8.528-1.476-.564-3.326-1.269-4.682-.856-11.462 3.491-22.852 7.224-34.253 10.915-.224.073-.326.522-.486.798 29.95 12.481 45.257 21.615 53.665 32.627-6.112 3.416-11.83 7.368-18.103 9.986-23.992 10.014-48 7.169-71.69-1.26-15.322-5.452-29.472-13.16-41.793-23.988-1.092-.96-2.956-1.612-4.4-1.512-28.357 1.961-56.62.157-84.869-2.05-3.77-.294-6.085.783-8.875 3.676-12.361 12.816-28.205 19.876-44.949 24.869-17.256 5.146-34.928 6.714-52.058.262-8.715-3.282-16.51-9.03-24.673-13.747-2.89-1.67-2.864-4.1-.557-6.095 5.377-4.653 10.431-10.062 16.587-13.342 9.478-5.05 19.768-8.574 29.716-12.74.885-.372 1.786-.706 4.22-1.664-8.593-3.116-15.841-5.947-23.244-8.284-1.813-.573-4.246.144-6.207.816-17.58 6.026-35.405 10.717-54.196 10.232-30.547-.788-54.11-14.531-71.858-38.955-.366-.503-.563-1.129-.992-2.01 8.886-5.333 18.427-8.352 28.427-8.72 9.935-.367 19.92.694 29.886 1.05 1.364.049 2.744-.356 4.117-.55-.627-1.381-.873-3.297-1.942-4.057-8.678-6.175-17.447-12.232-26.37-18.045-1.27-.828-3.545-.361-5.312-.147-22.77 2.759-44.908 1.073-65.812-9.282-19.686-9.753-33.724-25.16-44.034-44.254-.296-.548-.42-1.188-.81-2.327 20.885-7.534 41.276-1.487 62.802 1.24-1.377-2.462-2.247-4.278-3.348-5.94-3.953-5.968-7.847-11.985-12.078-17.753-1.145-1.56-3.329-3.145-5.156-3.301-23.348-1.99-42.42-12.954-59.366-28.197-14.113-12.695-24.073-27.998-27.214-47.077-.693-4.214-.627-8.553-.96-13.593 22.283-.673 38.544 11.367 56.469 23.647-3.826-11.394-7.097-21.448-10.67-31.393-.452-1.256-2.4-2.115-3.812-2.863-29.36-15.557-51.141-37.568-59.816-70.59-3.606-13.73-3.575-27.627-.883-42.564 23.796 6.78 37.467 24.526 51.005 44.521-.396-5.271-.773-9.123-.956-12.985-.393-8.315-.871-16.634-.93-24.955-.022-3.24-.827-5.366-3.334-7.651-25.155-22.924-38.956-51.132-38.623-85.55.136-14.051 4.017-27.21 11.166-40.226 17.684 14.583 26.912 34.24 37.123 53.888 2.237-10.507 4.604-20.989 6.574-31.545.306-1.64-.952-3.761-1.904-5.42-13.784-24.002-20.293-49.547-15.923-77.215 2.883-18.251 11.72-33.402 25.444-46.091 15.311 20.126 19.07 43.295 20.107 67.563 6.188-11.56 12.677-22.976 18.398-34.763 1.963-4.043 2.508-8.982 2.844-13.574 2.78-37.963 34.227-74.155 71.361-81.798 2.235-.46 4.552-.518 8.038-.894 0 4.792.644 9.149-.103 13.253-5.69 31.242-20.348 57.137-46.494 75.841-4.037 2.888-8.5 5.415-13.115 7.214-12.329 4.807-18.09 15.034-22.72 26.761 17.91-8.64 35.002-19.588 55.964-19.648 1.865 6.04-.119 11.234-2.22 16.26-8.223 19.68-20.602 36.002-38.63 47.866-14.245 9.373-28.875 17.873-45.143 23.321-1.614.541-3.572 2.26-3.994 3.809-3.014 11.04-5.67 22.178-8.44 33.286l1.35.651c1.006-1.324 2.042-2.626 3.012-3.976 8.293-11.545 17.185-22.609 28.822-30.945 4.523-3.24 9.778-5.66 15.001-7.665 5.12-1.965 6.202-.996 6.53 4.424 1.474 24.323-5.811 46.351-18.012 66.973-9.301 15.72-21.751 28.547-36.703 39.037-1.794 1.26-3.832 3.733-3.871 5.681-.284 14.153-.095 28.315-.01 42.474.005.753.424 1.502.74 2.551 6.263-23.396 13.508-45.791 32.119-63.44 7.074 12.145 11.138 24.012 12.634 36.675 3.88 32.836-7.043 60.953-28.07 85.62-2.113 2.48-2.864 4.429-1.846 7.466 3.263 9.741 6.348 19.542 9.501 29.32l1.519-.11c.52-5.094.78-10.232 1.614-15.275 1.596-9.662 2.978-19.412 5.468-28.858 2.109-7.995 6.637-14.845 14.69-19.128 9.715 9.108 15.723 20.329 19.01 32.866 7.571 28.887 5.21 56.763-9.685 83.126-.659 1.166-1.274 3.183-.725 4.077 4.806 7.827 9.882 15.49 14.879 23.2l1.404-.816c-1.094-8.54-2.365-17.063-3.214-25.628-.508-5.122-.719-10.335-.37-15.46.242-3.572 1.24-7.242 2.647-10.553 2.173-5.116 3.531-5.327 8.293-2.552 28.817 16.794 43.833 42.597 47.693 75.025 1.327 11.144.115 22.577.393 33.87.057 2.321.979 5.203 2.549 6.795 4.537 4.6 9.607 8.675 14.875 12.726-7.154-18.266-15.243-36.188-13.659-57.052 26.077 6.771 48.637 17.814 63.832 40.511 11.232 16.778 16.887 35.733 21.062 55.185.843 3.925 2.579 6.229 6.203 7.452 7.2 2.43 14.386 4.907 21.577 7.365l.832-1.268c-2.74-2.911-5.546-5.764-8.207-8.745-5.757-6.45-11.778-12.703-17.057-19.528-5.227-6.758-7.151-14.876-7.582-23.408-.186-3.701.831-4.982 4.697-4.817 43.394 1.853 75.126 21.341 93.39 61.375.829 1.818 1.924 3.592 2.341 5.507 1.664 7.63 6.937 9.755 13.93 9.751 25.638-.016 51.275.002 76.912.118 3.652.017 5.417-1.588 7.241-4.71 15.254-26.111 34.853-47.93 62.635-61.213 11.14-5.326 22.996-7.603 35.405-7.254 3.766.105 4.821 1.68 4.092 4.892-.771 3.396-1.56 6.841-2.862 10.053-6.124 15.111-14.543 28.815-25.684 40.785-.68.73-1.398 1.43-2.036 2.196-.177.213-.132.611-.272 1.382 11.524-2.284 22.06-6.718 32.249-11.95 1.323-.68 1.797-3.396 2.283-5.268 4.568-17.599 9.736-34.975 18.237-51.17 12.303-23.438 29.736-40.788 56.223-47.393.953-.238 1.94-.337 3.299-.566 3.747 7.433 3.293 15.14 1.781 22.857-3.289 16.78-11.19 31.61-19.838 46.103-.664 1.112-1.316 2.232-1.339 4.153 4.406-3.014 8.9-5.908 13.2-9.066 9.262-6.805 18.522-13.624 27.54-20.743 1.621-1.28 2.565-3.95 2.935-6.128.345-2.026-.489-4.254-.811-6.391-5.738-38.034 4.764-70.4 33.716-96.26 2.468-2.204 5.481-3.787 8.103-5.836 3.457-2.7 6.331-1.544 7.566 1.914 1.937 5.422 4.039 11.113 4.25 16.758.488 13.084-.113 26.208-.271 39.24 7.02-7.34 13.014-16.176 18.117-25.623.426-.786-.644-2.702-1.442-3.781-21.767-29.44-23.836-80.379-4.284-111.335 2.902-4.595 6.626-8.673 10.948-14.253 3.231 4.602 6.332 8.033 8.317 12.02 7.153 14.365 9.712 30.003 11.788 45.716.67 5.067 1.021 10.176 1.652 16.638 1.172-2.478 1.915-3.829 2.469-5.253 4.822-12.416 9.69-24.814 14.3-37.308.54-1.464.253-4.208-.764-5.126-17.198-15.533-27.776-35.126-35.034-56.725-5.138-15.287-6.987-30.971-2.42-46.673 2.043-7.02 5.74-13.558 9.047-21.146 22.787 15.452 32.016 37.64 40.243 61.026.435-2.856 1.018-5.698 1.277-8.57.838-9.285 1.46-18.59 2.37-27.867.328-3.34-1.066-4.962-3.839-6.633-30.618-18.45-49.361-45.213-54.668-80.667-1.232-8.23-.165-16.888.531-25.293.443-5.354 2.106-5.989 6.886-3.345 14.03 7.756 25.567 18.537 36.148 30.418 1.842 2.068 3.54 4.265 5.303 6.402l1.55-.536c-3.075-11.963-5.998-23.97-9.435-35.827-.389-1.34-3.635-2.497-5.63-2.63-32.685-2.186-59.82-15.496-80.152-41.19-5.962-7.533-9.568-16.956-14.036-25.625-.855-1.658-.69-3.843-1.133-6.662z"/>
  <path d="M672.951 410.314c2.738 6.945 5.322 12.345 7.001 18.012a482.607 482.607 0 0 1 7.921 30.357c.778 3.43 2.237 4.934 5.536 5.069 1.33.054 2.692.484 3.977.303 13.29-1.866 24.968 3.658 36.343 8.887 6.247 2.871 12.24 7.772 16.507 13.204 13.869 17.653 3.665 43.075-18.798 48.282-16.625 3.854-32.007.05-46.81-7.484-3.215-1.637-6.493-3.152-10.299-4.993-.636 3.596-1.327 6.481-1.633 9.407-1.714 16.388-10.524 28.017-24.94 34.97-11.958 5.768-24.476 10.408-36.872 15.222a989.36 989.36 0 0 1-36.582 13.376c-5.45 1.873-7.87 5.58-9.046 10.839-3.191 14.28-6.33 28.58-9.924 42.761-1.752 6.91-4.86 13.474-6.665 20.375-2.721 10.395-3.177 20.944-1.208 31.646 2.166 11.772-.37 23.188-3.81 34.41-5.556 18.127-11.554 36.13-16.656 54.383-3.63 12.987-2.95 25.755 3.302 38.38 2.811 5.678 3.658 12.831 3.611 19.301-.07 9.686-7.581 16.599-17.243 16.353-5.845-.148-12.044-1.057-17.377-3.303-8.24-3.468-11.967-10.47-11.595-19.7.26-6.456-.363-12.943-.34-19.416.015-3.795-.188-7.814.931-11.344 5.508-17.362 6.153-35.01 3.797-52.867-2.032-15.391-1.426-30.589 2.773-45.555 2.343-8.351 2.513-16.504.8-25.127-1.15-5.795.182-12.088.446-18.157.064-1.468.612-2.973.41-4.385-3.832-26.72-2.512-53.233 4.49-79.233 2.896-10.755 1.272-18.6-8.12-25.005-5.716-3.897-10.3-9.6-18.463-7.793-8.759 1.94-17.586 3.593-26.419 5.173-3.916.7-7.921 1.3-11.883 1.278-15.462-.087-30.926-.713-46.383-.565-6.374.06-13.113.516-19.02 2.643-11.304 4.07-22.78 6.105-34.671 6.463-9.826.296-19.653.522-29.475.91-7.37.292-8.456 1.71-8.519 9.101-.039 4.634.009 9.398-1.02 13.864-1.643 7.13-7.517 10.114-14.2 7.111-4.63-2.08-8.95-5.111-12.909-8.332-2.614-2.127-4.572-2.006-6.299.239-3.844 4.997-7.378 10.233-11.045 15.366-2.8 3.92-5.212 8.212-8.496 11.675-8.926 9.415-20.273 7.41-25.835-4.31-4.474-9.429-3.137-18.83.469-28.137.9-2.324 1.838-4.693 3.167-6.781 4.94-7.766 9.535-15.393 9.052-25.344-.153-3.151 3.058-6.705 5.261-9.68 4.496-6.07 9.15-12.054 14.156-17.703 2.178-2.457 5.18-4.476 8.2-5.797 2.126-.93 5.17-1.08 7.36-.313 9.685 3.385 16.327-1.233 22.465-7.731.912-.966 2.007-1.756 2.956-2.69 15.08-14.83 32.547-25.167 53.579-29.153 10.584-2.007 20.186-6.446 29.16-12.536 7.946-5.391 16.376-10.07 25.234-15.452-15.045-4.306-29.342-7.545-44.42-5.124-15.182 2.438-30.342 3.354-45.69.304-8.908-1.77-18.13-2.092-27.237-2.69-9.36-.613-13.349 2.43-15.79 11.668-1.358 5.145-2.051 10.47-3.52 15.579-3.011 10.48-11.84 13.308-19.728 5.724-4.3-4.134-7.745-9.641-10.162-15.15-4.674-10.65-8.595-21.656-12.376-32.67-5.2-15.145 1.698-24.125 17.738-23.574 1.496.052 3.03.076 4.47.424 13.716 3.309 26.803.223 40.117-3.022 16.125-3.93 32.437-7.499 48.876-9.558 8.49-1.064 17.602.705 26.126 2.587 10.459 2.308 20.144 2.845 30.756-.546 17.545-5.606 35.7-9.291 53.551-13.964 3.818-1 7.637-2.383 11.109-4.239 11.071-5.916 22.625-9.545 35.327-9.29 4.12.084 8.313-.418 12.366-1.203 2.137-.414 4.635-1.533 5.957-3.158 7.216-8.872 17.108-11.033 27.658-11.429 4.968-.186 10.012.934 14.934.49 5.03-.453 10.023-1.854 14.91-3.266 11.962-3.455 23.655-8.312 35.835-10.4 10.085-1.727 20.684-3.59 31.113-.144 7.527 2.487 14.746 5.243 19.974 11.62 2.626 3.202 5.096 3.853 7.71-.335 2.017-3.232 4.551-6.162 7.018-9.09 18.472-21.93 50.56-19.661 65.83 4.572 7.005 11.116 6.59 22.855 1.016 33.84-6.43 12.674-16.536 22.585-29.095 29.443-9.346 5.103-19.194 8.795-30.722 2.127zm-50.234 119.15c-3.83 1.934-6.567 3.726-9.566 4.755-9.047 3.104-17.59 7.02-25.09 13.104-2.959 2.4-6.244 4.455-9.569 6.334-6.208 3.507-8.25 3.028-12.684-2.616-5.755-7.325-11.02-15.087-17.255-21.974-11.62-12.836-24.03-24.904-26.923-43.268-.877-5.57-5.664-8.615-10.818-10.902-5.586-2.48-9.642-.352-13.429 3.389-3.872 3.826-4.27 8.503-1.566 12.792 2.973 4.715 6.842 8.87 10.371 13.226 4.032 4.977 8.923 9.458 12.006 14.959 5.278 9.417 9.338 19.51 14.098 29.226 6.057 12.365 13.561 23.59 24.461 32.43 6.32 5.125 12.794 6.796 20.38 3.988 19.502-7.218 39.047-14.327 58.45-21.8 4.924-1.897 9.822-4.442 13.941-7.691 4.614-3.64 9.398-7.815 12.223-12.82 6.881-12.195.912-22.527-13.002-24.356-11.233-1.477-21.184 2.276-31.361 7.042l5.333 4.181zm16.687-91.946c.049-7.95-4.476-15.793-11.824-18.705-13.489-5.347-27.49-8.454-41.896-4.569-4.424 1.194-8.708 4.116-12.226 7.195-6.06 5.304-4.18 20.136 6.47 21.725 2.612.39 5.209 1.163 7.694 2.082 4.943 1.828 5.52 4.204 2.924 8.832-9.431 16.81-19 33.552-28.02 50.583-6.554 12.376-3.402 27.51 6.824 37.391 2.596 2.508 5.05 2.722 7.956.572 2.264-1.676 4.576-3.442 7.138-4.528 6.212-2.631 9.097-6.917 8.017-13.713-.313-1.968-.189-4.015-.598-5.956-1.361-6.464 1.046-11.506 5.035-16.483a2112.207 2112.207 0 0 0 34.594-44.34c4.44-5.853 7.93-12.351 7.912-20.086zm52.386 33.955l-.3.913c-2.96.41-5.97.606-8.874 1.267-15.338 3.492-20.89 17.877-11.719 30.659 2.1 2.926 4.601 6.118 7.682 7.681 10.021 5.082 20.213 9.948 30.705 13.936 6.125 2.328 10.308-.166 12.737-6.274 2.389-6.004 4.56-12.17 6.02-18.451 2.601-11.206-1.143-19.068-11.885-23.232-7.791-3.02-16.221-4.392-24.366-6.5zm7.659-92.803c-1.002.068-1.717-.079-2.218.183a385.08 385.08 0 0 0-10.088 5.46c-8.25 4.625-14.643 3.575-20.928-3.496-2.322-2.611-4.402-5.494-7.014-7.77-1.786-1.556-4.382-3.322-6.474-3.161-4.925.38-9.874 1.508-14.61 2.984-5.544 1.726-7.566 6.16-4.998 11.334 2.194 4.418 5.108 8.548 8.142 12.465 8.394 10.84 8.917 10.952 20.869 4.585 5.247-2.796 10.024-3.018 14.855.759 3.63 2.836 7.757 3.66 12.262 2.382 10.17-2.886 18.999-7.997 26.026-15.95 1.398-1.583 2.197-3.696 3.273-5.564l-1.339-1.195c-3.055 2.126-5.887 4.781-9.242 6.199-2.411 1.019-5.847 1.218-8.241.285-3.294-1.284-1.922-4.349-.77-6.867.311-.68.296-1.51.495-2.633zm-36.831 127.873c-1.374-7.026-2.918-12.644-3.487-18.36-.88-8.83 2.465-13.98 10.519-17.868 2.694-1.3 5.55-2.418 7.915-4.18 1.177-.878 2.377-3.522 1.875-4.49-1.096-2.114-2.96-4.317-5.067-5.334-7.329-3.54-14.598-.835-21.837.956-10.95 2.708-18.346 9.65-23.398 19.425-3.006 5.816-3.024 8.31 2.153 12.116 7.327 5.387 15.2 10.05 22.989 14.778 2.156 1.309 4.838 1.752 8.338 2.957zm.519-93.826c-7.298 3.44-11.511 14.211-8.59 21.205.302.723.837 1.709 1.458 1.883 5.907 1.655 11.856 3.161 18.658 4.936-1.633-11-4.368-20.418-11.526-28.024zm-110.39-48.288c-4.844-2.665-8.697-5.519-14.247-4.111-5.924 1.503-12.15 1.854-18.028 3.488-5.132 1.428-6.04 4.46-3.584 8.566 2.84-5.372 2.84-5.372 6.824-5.504l1.377 3.398c2.447-1.126 4.488-2.49 6.7-2.878.898-.157 2.168 1.814 3.64 3.155 2.4-10.167 11.579-1.424 17.319-6.114zM438.252 146.287c-1.773-.907-3.728-1.574-5.287-2.761-6.714-5.113-12.773-11.412-20.13-15.244-5.394-2.81-12.569-3.825-18.717-3.23-13.764 1.331-21.877 10.17-22.514 24.312-1.038 23.04 5.23 44.214 19.29 62.643 8.473 11.105 25.885 13.14 37.478 5.155 4.022-2.77 4.898-6.541 3.728-10.96a443.09 443.09 0 0 0-4.491-15.854c-2.134-6.997-4.991-8.741-12.25-7.701-1.152.165-2.33.78-3.413.62-1.21-.177-2.324-1-3.48-1.543.9-.926 1.64-2.29 2.733-2.689 2.643-.965 5.452-1.473 8.19-2.178 12.572-3.236 25.125-6.547 37.734-9.623 1.52-.371 3.347.514 5.032.818-1.088 1.139-1.971 2.703-3.3 3.344-6.422 3.097-7.986 5.937-6.232 13.26 1.472 6.147 3.475 12.169 4.878 18.329.36 1.58-.05 4.297-1.137 5.104-19.89 14.77-41.75 24.192-66.995 19.658-27.6-4.958-46.158-30.94-43.889-59.486 2.17-27.302 25.169-48.516 53.75-49.34 5.976-.173 11.979.344 17.96.691 4.352.253 6.876-1.508 7.906-5.835.305-1.28 1.761-2.287 2.69-3.42.99 1.03 2.524 1.9 2.881 3.116 3.04 10.348 5.866 20.759 8.756 31.15l-1.171 1.664zM586.083 178.239c-2.588 10.62-5.05 21.299-7.96 31.854-.32 1.16-3.234 2.346-4.896 2.28-16.972-.666-33.933-1.595-50.897-2.438-11.143-.554-22.292-1.002-33.423-1.727-1.56-.101-3.036-1.514-4.55-2.32 1.5-.782 2.952-2.112 4.511-2.253 6.86-.62 10.068-3.525 10.44-10.273 1.345-24.438 2.675-48.877 3.918-73.32.42-8.252-1.586-10.548-9.606-12.43-1.374-.322-2.484-1.771-3.715-2.7 1.344-.573 2.712-1.692 4.03-1.637 17.282.725 34.557 1.616 51.82 2.464 1.2 2.903.592 4.42-2.498 4.323-11.172-.349-13.561 2.743-14.161 15.443-1.084 22.951-2.544 45.885-3.731 68.832-.435 8.414 1.103 9.975 9.763 10.95 20.922 2.36 33.668-4.552 44.205-24.223 1.54-2.877 2.982-4.746 6.75-2.825zM649.873 232.71c-2.159.773-3.787 2.013-4.868 1.645-16.672-5.67-33.273-11.55-49.89-17.38l-.467-1.695c1.451-.552 3.01-1.766 4.337-1.55 9.97 1.623 11.901.68 15.445-8.644 8.339-21.936 16.626-43.892 24.936-65.84 3.505-9.259 2.702-11.202-6.273-16.246-.954-.536-1.362-2.046-2.023-3.104 1.053-.406 2.313-1.411 3.13-1.13 16.814 5.784 33.577 11.715 50.35 17.617l.359 1.777c-1.486.51-3.075 1.655-4.44 1.431-10.461-1.712-12.384-.706-16.063 9.04-7.994 21.18-15.997 42.357-24.002 63.532-4.424 11.7-3.949 12.945 7.123 18.62.426.219.76.614 2.346 1.927zM648.832 115.65c10.275-4.247 20.507-8.607 30.863-12.646 2.05-.8 4.637-.756 6.874-.421 3.757.562 6.626 2.7 6.693 6.826.064 3.919-1.977 6.804-6.059 7.3-10.055 1.224-20.123 2.48-30.224 3.11-2.665.167-5.47-1.887-8.21-2.922l.063-1.246z"/>
  <path fill="#fceede" d="M622.717 529.463l-5.333-4.18c10.177-4.767 20.128-8.52 31.361-7.043 13.914 1.829 19.883 12.16 13.002 24.356-2.825 5.005-7.61 9.18-12.223 12.82-4.119 3.25-9.017 5.794-13.941 7.69-19.403 7.474-38.948 14.583-58.45 21.8-7.586 2.809-14.06 1.138-20.38-3.987-10.9-8.84-18.404-20.065-24.461-32.43-4.76-9.716-8.82-19.81-14.098-29.226-3.083-5.5-7.974-9.982-12.006-14.959-3.53-4.356-7.398-8.51-10.37-13.226-2.705-4.29-2.307-8.966 1.565-12.792 3.787-3.741 7.843-5.868 13.43-3.39 5.153 2.288 9.94 5.332 10.817 10.904 2.894 18.363 15.304 30.431 26.923 43.267 6.235 6.887 11.5 14.649 17.255 21.974 4.433 5.644 6.476 6.123 12.684 2.616 3.325-1.879 6.61-3.934 9.569-6.334 7.5-6.083 16.043-10 25.09-13.104 2.999-1.03 5.736-2.821 9.566-4.756z"/>
  <path fill="#fceede" d="M639.404 437.518c.018 7.735-3.472 14.233-7.912 20.085a2112.24 2112.24 0 0 1-34.594 44.34c-3.99 4.978-6.396 10.02-5.035 16.484.409 1.94.285 3.988.598 5.956 1.08 6.796-1.805 11.082-8.017 13.713-2.562 1.086-4.874 2.852-7.138 4.528-2.905 2.15-5.36 1.936-7.956-.572-10.226-9.88-13.378-25.015-6.824-37.391 9.02-17.031 18.589-33.772 28.02-50.583 2.597-4.628 2.019-7.004-2.924-8.832-2.485-.92-5.082-1.692-7.695-2.082-10.648-1.59-12.529-16.42-6.469-21.725 3.518-3.079 7.802-6.001 12.226-7.195 14.405-3.885 28.407-.778 41.896 4.569 7.348 2.912 11.873 10.756 11.824 18.705zM691.79 471.473c8.145 2.107 16.575 3.478 24.366 6.499 10.742 4.164 14.486 12.026 11.884 23.232-1.458 6.282-3.63 12.447-6.019 18.45-2.43 6.109-6.612 8.603-12.737 6.275-10.492-3.988-20.684-8.853-30.705-13.936-3.08-1.563-5.583-4.755-7.682-7.681-9.17-12.782-3.62-27.167 11.719-30.66 2.904-.66 5.913-.856 8.874-1.266l.3-.913zM699.449 378.67c-.2 1.124-.184 1.953-.495 2.633-1.152 2.518-2.524 5.583.77 6.867 2.394.933 5.83.734 8.241-.285 3.355-1.418 6.187-4.073 9.242-6.2l1.339 1.196c-1.076 1.868-1.875 3.98-3.273 5.564-7.027 7.953-15.855 13.064-26.026 15.95-4.505 1.278-8.632.454-12.262-2.382-4.831-3.777-9.608-3.555-14.855-.76-11.952 6.368-12.475 6.256-20.87-4.584-3.033-3.917-5.947-8.047-8.14-12.465-2.57-5.175-.547-9.608 4.997-11.334 4.736-1.476 9.685-2.604 14.61-2.984 2.092-.161 4.688 1.605 6.474 3.161 2.612 2.276 4.692 5.159 7.014 7.77 6.285 7.071 12.678 8.12 20.928 3.496 3.335-1.87 6.699-3.69 10.088-5.46.501-.262 1.216-.115 2.218-.183z"/>
  <path fill="#fceede" d="M662.618 506.543c-3.5-1.205-6.182-1.648-8.338-2.957-7.788-4.728-15.662-9.39-22.99-14.778-5.176-3.806-5.158-6.3-2.152-12.116 5.052-9.775 12.449-16.717 23.398-19.425 7.239-1.79 14.508-4.497 21.837-.956 2.106 1.017 3.97 3.22 5.067 5.334.502.968-.698 3.612-1.875 4.49-2.365 1.762-5.221 2.88-7.915 4.18-8.054 3.888-11.4 9.039-10.52 17.869.57 5.715 2.114 11.333 3.488 18.36zM663.137 412.717c7.158 7.606 9.893 17.023 11.526 28.024-6.802-1.775-12.751-3.281-18.658-4.936-.62-.174-1.156-1.16-1.458-1.883-2.921-6.994 1.292-17.765 8.59-21.205zM552.748 364.429c-5.74 4.69-14.918-4.053-17.319 6.114-1.472-1.341-2.742-3.312-3.64-3.155-2.212.388-4.253 1.752-6.7 2.878l-1.377-3.398c-3.985.132-3.985.132-6.824 5.504-2.456-4.107-1.548-7.138 3.584-8.566 5.877-1.634 12.104-1.985 18.028-3.488 5.55-1.408 9.403 1.446 14.248 4.11z"/>
  <path fill="#16e704" d="M258 232.543c-56.4 20.571-59.314 74.914-59.314 74.914 61.2-22.286 59.314-74.914 59.314-74.914zM145.805 300.913c30.298 50.229-.776 93.287-.776 93.287-32.9-54.476.776-93.287.776-93.287zM228.784 338.022c-19.143 55.447-72.11 59.186-72.11 59.186 20.736-60.166 72.11-59.186 72.11-59.186zM186.088 420.013c2.798 58.592-45.002 81.718-45.002 81.718-3.069-63.565 45.002-81.718 45.002-81.718zM172.195 522.531c-41.04 41.912-20.705 90.964-20.705 90.964 44.549-45.446 20.705-90.964 20.705-90.964zM190.034 613.6c-31.163 49.695-.84 93.285-.84 93.285 33.838-53.897.84-93.286.84-93.286zM221.045 701.01c-10.276 57.753 34.17 86.808 34.17 86.808 11.18-62.649-34.17-86.807-34.17-86.807zM285.123 776.891c7.207 58.215 58.243 72.876 58.243 72.876-7.785-63.161-58.243-72.876-58.243-72.876zM366.533 822.728c21.321 54.647 74.396 56.288 74.396 56.288-23.1-59.299-74.396-56.288-74.396-56.288zM242.62 847.773c54.613-21.407 91.824 16.473 91.824 16.473-59.237 23.257-91.824-16.473-91.824-16.473zM348.842 910.643c44.96-37.677 92.292-13.61 92.292-13.61-48.754 40.901-92.292 13.61-92.292 13.61zM160.546 764.369c58.047-8.454 85.69 36.883 85.69 36.883-62.97 9.205-85.69-36.883-85.69-36.883zM107.446 653.4c57.75 10.282 69.686 62.023 69.686 62.023-62.66-11.122-69.686-62.023-69.686-62.023zM88.237 531.015c51.953 27.236 47.711 80.166 47.711 80.166-56.379-29.519-47.71-80.166-47.71-80.166zM100.036 411.312c-15.408 56.599 26.255 89.52 26.255 89.52 16.75-61.396-26.255-89.52-26.255-89.52zM763.064 232.543c56.4 20.571 59.314 74.914 59.314 74.914-61.2-22.286-59.314-74.914-59.314-74.914zM867.017 289.36c-27.276 51.932 6.289 93.079 6.289 93.079 29.621-56.325-6.29-93.078-6.29-93.078zM784.92 338.376c25.562 52.797 78.601 50.25 78.601 50.25-27.701-57.294-78.6-50.25-78.6-50.25zM839.947 416.755c-2.798 58.593 45.002 81.719 45.002 81.719 3.069-63.565-45.002-81.719-45.002-81.719zM845.79 509.15c44.84 37.819 29.262 88.582 29.262 88.582-48.668-41.003-29.262-88.582-29.262-88.582zM833.258 611.885c31.163 49.696.84 93.286.84 93.286-33.838-53.897-.84-93.286-.84-93.286zM800.219 699.588c12.271 57.36-31.14 87.939-31.14 87.939-13.347-62.224 31.14-87.94 31.14-87.94zM724.143 773.912c-1.166 58.647-50.419 78.491-50.419 78.491 1.232-63.627 50.42-78.491 50.42-78.491zM639.616 830.27c-21.32 54.648-74.396 56.289-74.396 56.289 23.1-59.299 74.396-56.288 74.396-56.288zM778.1 849.316c-54.612-21.407-91.823 16.473-91.823 16.473 59.237 23.256 91.824-16.473 91.824-16.473zM662.107 913.214c-44.96-37.677-92.292-13.61-92.292-13.61 48.754 40.901 92.292 13.61 92.292 13.61zM867.257 763.948c-57.845-9.734-86.482 34.982-86.482 34.982 62.75 10.593 86.482-34.982 86.482-34.982zM919.103 651.342c-57.75 10.283-69.686 62.024-69.686 62.024 62.66-11.122 69.686-62.024 69.686-62.024zM938.14 520.215c-51.952 27.236-47.71 80.166-47.71 80.166 56.378-29.519 47.71-80.166 47.71-80.166zM929.085 409.94c15.408 56.6-26.255 89.52-26.255 89.52-16.75-61.396 26.255-89.52 26.255-89.52z"/>
  <path d="M266.486 416.829s-2.572 9.771 1.285 14.142 12.343 3.6 12.343 3.6 4.886-.514 9.515 1.029c4.628 1.543 22.885.257 26.228 1.8 3.343 1.543 15.686 3.857 33.943.771 0 0 12.343-4.114 21.6-2.828 9.257 1.286 29.571 5.4 43.2 5.4h13.629s7.714-1.029 5.914-5.657c-1.8-4.629-2.829-39.857 1.8-44.743 0 0-39.086 10.286-54.514 16.457 0 0-12.858 1.543-27.515-2.314S324.6 399.6 312 404.743s-40.114 8.743-42.943 10.028c-2.828 1.286-2.571 2.058-2.571 2.058z" fill="red"/>
  <path fill="#fd0101" d="M285.771 525.6s-7.714 4.629.515 4.629 18.771-5.915 33.943-12.6c15.171-6.686 39.6-8.743 55.028-7.715 0 0 3.343.772 9.257-2.828 5.915-3.6 48.343-16.715 63.257-16.715s32.4-1.285 33.686-3.085l1.286-1.8s.771-2.315-3.857-3.857-24.429-12.858-35.486-27.258c0 0-5.4-9.514-9.257-8.228s-35.743 14.914-55.543 28.8c0 0-11.314 8.486-20.314 9.514-9 1.029-34.972 5.914-46.286 18.257-11.314 12.343-26.229 22.886-26.229 22.886z"/>
  <path d="M516.208 431.946a51.228 51.228 0 0 1-.662-4.462c-1.145-11.536-2.002-26.36 2.168-37.398 4.372-11.572-4.114-10.286-6.428-2.829-2.315 7.457-5.657 23.4 1.8 54 0 0 3.342 9.514 5.4 7.715.921-.807.497-2.567.336-3.865-.553-4.466-1.782-8.76-2.614-13.16z" fill="#fb0201"/>
  <path fill="#fd0101" d="M531.6 453.086s-12.857-25.2-6.943-55.543c0 0-1.028-17.486 17.229-22.886s34.714-11.314 44.228-18.771c9.515-7.457 39.343-14.4 51.429-5.143 12.086 9.257 7.2 11.057 7.2 11.057s-14.914 1.286-17.743 5.657-6.686 11.572.514 23.143c7.2 11.571 17.743 19.029 17.486 32.914 0 0-7.714-17.228-37.543-20.571-29.828-3.343-44.743 11.828-45.771 19.286-1.029 7.457-2.829 18.257 6.685 25.971 0 0-8.485 6.429-36.771 4.886z"/>
  <path fill="#012bff" d="M654.33 446.124a1.867 1.867 0 0 0-.296-.912c-1.165-1.878-5.65-1.733-6.971.016-1.123 1.487-.12 4.952 2.05 4.772 1.86-.154 5.303-1.886 5.218-3.876z"/>
  <path fill="#002efd" d="M575.314 456.429s6.943-1.543 2.829 3.6c-4.114 5.142-5.914 4.885-10.8 14.4-4.886 9.514-15.429 36.771-19.8 39.342-4.372 2.572-13.372-12.6-14.4-14.914l-1.029-2.314s-1.543-8.743-2.571-12.343c-1.029-3.6-5.657-7.457-4.886-11.571s4.886-11.058 10.286-11.315c5.4-.257 30.086 0 40.371-4.885zM619.029 490.629s-8.229 11.057-12.858 14.914c-4.628 3.857-8.742 14.4-4.371 19.028 4.371 4.629 8.229-3.857 12.6-6.685 4.371-2.829 25.971-8.743 27.514-9.772 1.543-1.028-6.428-4.885-11.057-7.971-4.628-3.086-11.828-9.514-11.828-9.514z"/>
  <path fill="#012bff" d="M286.543 541.286s-10.286.514-12.6 7.714-2.057 15.943-1.286 20.057c.772 4.114 4.372-7.457 13.886-8.743s25.971-3.857 29.828-2.571 25.2 2.314 42.943-3.857c17.743-6.172 30.343-7.715 37.8-6.943s42.172 1.028 56.829-2.314c14.657-3.343 25.457-4.886 27.514-5.143 2.057-.257 9.257-4.372 10.286-17.486 1.028-13.114-1.8-20.829-4.372-21.857s-6.685-3.6-24.171-1.029c0 0-20.829-1.8-40.629 4.372-19.8 6.171-30.6 10.028-34.457 12.6-3.857 2.571-15.685 3.343-20.828 2.314-5.143-1.029-35.486 1.543-54.772 11.314s-22.114 11.057-25.971 11.572z"/>
  <path fill="#002efd" d="M556.629 602.314s2.4-7.885-4.115-13.028c-6.514-5.143-12-11.143-15.428-15.943-3.429-4.8-6.857-6-11.143-4.629-4.286 1.372-11.829.857-13.543 8.4-1.714 7.543-4.286 26.057-6 32.057s-2.914 41.315-.514 52.115c0 0-.172 7.714-1.029 10.628-.857 2.915-1.543 10.115.686 16.629 2.228 6.514 1.714 16.457-.343 20.914-2.057 4.457-7.714 24.686-4.286 53.143 3.429 28.457-.514 39.257-.685 41.486-.172 2.228.857 2.228 4.285 2.4 3.429.171 12 1.714 14.4-4.8 2.4-6.515 6.515-41.829 13.2-61.2 6.686-19.372 9.943-29.143 6-46.8-3.943-17.657 6.343-39.257 6.343-39.257s14.229-39.772 12.172-52.115z"/>
</svg>
